<?xml version="1.0" standalone="yes"?>
<svg xmlns="http://www.w3.org/2000/svg" width="2552" height="850">
<path style="fill:#7c72bd; stroke:none;" d="M0 0L0 850L2552 850L2552 0L0 0z"/>
<path style="fill:#211a58; stroke:none;" d="M1228 78L1228 79L1249 78L1228 78M1252 78L1252 85C1254.46 82.3609 1254.28 80.7722 1252 78z"/>
<path style="fill:#cbcfe9; stroke:none;" d="M1321 78L1321 95C1316.16 93.2375 1311.02 92.0768 1306 93.9946C1288.99 100.497 1292.14 130.307 1311 131.39C1315.67 131.659 1319.79 129.716 1324 128C1326.49 132.144 1329.79 130.924 1334 130C1329.77 112.985 1331.24 96.7322 1332 79L1321 78z"/>
<path style="fill:#211a58; stroke:none;" d="M1331 78L1332 79L1331 78z"/>
<path style="fill:#cbcfe9; stroke:none;" d="M1398 131L1407 132C1409.63 122.798 1420.05 115.968 1429.72 122.028C1432.97 124.061 1432.36 128.975 1435.51 130.883C1438.05 132.422 1443.1 131.024 1446 131C1443.03 113.741 1427.54 97.6895 1428 80L1417.5 79.118L1411.58 92L1398 131z"/>
<path style="fill:#211a58; stroke:none;" d="M1425 78L1425 79L1429 80C1426.53 91.3962 1436.97 106.556 1441.2 117C1442.95 121.33 1444.29 126.393 1449 128C1449 114.668 1441.73 105.172 1437.06 93C1434.47 86.2256 1433.24 79.111 1425 78M1223 79L1223 80L1227 80L1223 79z"/>
<path style="fill:#cbcfe9; stroke:none;" d="M1211 81C1212.86 93.2992 1222.9 83.1367 1226.4 91.1481C1231.08 101.866 1226.24 120.587 1226 132L1237 131L1238 88L1251 88L1251 79L1211 81z"/>
<path style="fill:#211a58; stroke:none;" d="M1332 79C1332 94.178 1327.72 112.524 1333 127L1335 127C1338.34 121.42 1336.3 118.006 1336.34 112C1336.41 103.225 1341.51 84.1181 1332 79z"/>
<path style="fill:#7c72bd; stroke:none;" d="M1428.33 80.6667L1428.67 81.3333L1428.33 80.6667M1427.33 83.6667L1427.67 84.3333L1427.33 83.6667M1331 84L1331 99L1332 99L1331 84M1428 86L1429 87L1428 86z"/>
<path style="fill:#211a58; stroke:none;" d="M1238 89L1237 127C1247.04 123.838 1242.68 98.0371 1246 89L1238 89z"/>
<path style="fill:#7c72bd; stroke:none;" d="M1429 89L1430 90L1429 89z"/>
<path style="fill:#211a58; stroke:none;" d="M1319 90L1315 91L1315 93L1320 94L1319 90z"/>
<path style="fill:#7c72bd; stroke:none;" d="M1430 91L1431 92L1430 91z"/>
<path style="fill:#211a58; stroke:none;" d="M1274 92L1274 93C1293.32 94.0046 1292.92 113.885 1287 127C1295.5 121.665 1299.88 105.134 1291.81 97.2137C1286.87 92.3633 1280.5 92.0043 1274 92M1358 92L1358 93C1376.55 94.6809 1377.35 114.135 1370 127C1390.43 116.303 1377.19 92.0128 1358 92z"/>
<path style="fill:#cbcfe9; stroke:none;" d="M1449 92L1450 145L1460 143L1460 130C1465.87 131.446 1472.5 132.529 1477.91 128.992C1487.07 122.998 1487.34 105.921 1480.61 98.1049C1473.65 90.0259 1458.72 93.8105 1449 92z"/>
<path style="fill:#211a58; stroke:none;" d="M1458 92L1458 93L1466 93L1458 92M1471 92L1471 93C1487.69 96.0226 1487.07 115.118 1481 127C1490.18 122.872 1494.51 107.367 1488.11 98.7546C1483.81 92.9784 1477.68 92.0184 1471 92z"/>
<path style="fill:#cbcfe9; stroke:none;" d="M1490 92L1492 145L1501 143L1501 130C1506.63 131.092 1512.6 132.56 1518 129.686C1528.21 124.25 1529.36 105.339 1521.61 97.3403C1514.81 90.3278 1499.15 93.1568 1490 92z"/>
<path style="fill:#211a58; stroke:none;" d="M1500 92L1500 93L1508 93L1500 92M1512 92L1512 93C1530.29 95.0369 1528.17 116.22 1522 128C1540.01 117.362 1531.99 92.0132 1512 92z"/>
<path style="fill:#cbcfe9; stroke:none;" d="M1266 93.6381C1242.1 100.548 1254.41 137.475 1279 130.457C1302.06 123.876 1289.93 86.7187 1266 93.6381z"/>
<path style="fill:#7c72bd; stroke:none;" d="M1278.67 93.3333L1279.33 93.6667L1278.67 93.3333M1317.67 93.3333L1318.33 93.6667L1317.67 93.3333z"/>
<path style="fill:#cbcfe9; stroke:none;" d="M1350 93.5332C1326.04 99.3575 1337.2 137.201 1362 130.645C1385.42 124.454 1374.1 87.6746 1350 93.5332z"/>
<path style="fill:#7c72bd; stroke:none;" d="M1362 93L1363 94L1362 93M1431.33 93.6667L1431.67 94.3333L1431.33 93.6667M1458.67 93.3333L1459.33 93.6667L1458.67 93.3333M1462.67 93.3333L1463.33 93.6667L1462.67 93.3333M1474 93L1475 94L1474 93M1500 93L1503 95L1500 93M1504 93L1505 94L1504 93M1515.67 93.3333L1516.33 93.6667L1515.67 93.3333M1281 94L1282 95L1281 94M1364.67 94.3333L1365.33 94.6667L1364.67 94.3333M1460 94L1461 95L1460 94M1476 94L1477 95L1476 94M1518 94L1519 95L1518 94M1283 95L1284 96L1283 95M1366 95L1367 96L1366 95M1422 95L1423 96L1422 95M1478 95L1479 96L1478 95M1519 95L1520 96L1519 95M1284 96L1285 97L1284 96z"/>
<path style="fill:#211a58; stroke:none;" d="M1422 96L1415 113L1428 112L1422 96z"/>
<path style="fill:#7c72bd; stroke:none;" d="M1432 96L1433 97L1432 96M1479 96L1480 97L1479 96M1285 97L1286 98L1285 97M1369 97L1370 98L1369 97M1421 97L1422 98L1421 97M1423.33 97.6667L1423.67 98.3333L1423.33 97.6667M1480 97L1481 98L1480 97M1286 98L1287 99L1286 98M1370 98L1371 99L1370 98M1433 98L1434 99L1433 98M1481 98L1482 99L1481 98M1287 99L1288 100L1287 99M1523 99L1524 100L1523 99M1371 100L1372 101L1371 100M1420 100L1421 101L1420 100M1424.33 100.667L1424.67 101.333L1424.33 100.667M1482 100L1483 101L1482 100M1524.33 100.667L1524.67 101.333L1524.33 100.667M1265 105L1270 102L1265 105z"/>
<path style="fill:#211a58; stroke:none;" d="M1279 119C1267.49 117.824 1271.06 108.131 1274 101C1255 103.117 1267.92 132.304 1279 119z"/>
<path style="fill:#7c72bd; stroke:none;" d="M1274 101C1272.86 102.928 1271.45 104.867 1270.72 107.005C1269.31 111.167 1272.22 122.113 1278.57 118.712C1285.4 115.052 1278.44 103.189 1274 101M1311.67 101.333L1312.33 101.667L1311.67 101.333z"/>
<path style="fill:#211a58; stroke:none;" d="M1320 119C1310.37 118.728 1310.32 108.287 1316 103C1301.26 93.6677 1304.1 137.009 1320 119z"/>
<path style="fill:#7c72bd; stroke:none;" d="M1315 101C1314.3 103.904 1311.96 106.008 1311.44 109.015C1310.82 112.589 1314.39 121.524 1319.4 118.632C1325.39 115.172 1319.73 102.7 1315 101M1352.67 101.333L1353.33 101.667L1352.67 101.333z"/>
<path style="fill:#211a58; stroke:none;" d="M1362 120C1352.62 117.344 1352.59 108.526 1358 102C1339.93 98.2953 1349.17 133.1 1362 120z"/>
<path style="fill:#7c72bd; stroke:none;" d="M1357 101C1357 103.914 1353.72 105.499 1353.33 109C1352.91 112.847 1357.1 123.767 1362.67 119.5C1368.54 115.003 1362.29 102.53 1357 101M1372 101L1373 102L1372 101M1434 101L1435 102L1434 101M1464.67 101.333L1465.33 101.667L1464.67 101.333z"/>
<path style="fill:#211a58; stroke:none;" d="M1473 119C1464.55 116.603 1464.16 108.531 1470 103C1454.57 94.7741 1458.03 135.963 1473 119z"/>
<path style="fill:#7c72bd; stroke:none;" d="M1467.67 101.333L1468.33 101.667L1467.67 101.333M1506 101L1506 102L1511 102L1506 101M1289 102L1290 103L1289 102M1309 102L1310 103L1309 102M1419 102L1420 103L1419 102M1462 102L1463 103L1462 102M1470 102C1463.16 108.907 1464.5 117.012 1474 120C1474.89 112.997 1476.06 106.924 1470 102M1483 102L1484 103L1483 102M1504 102L1505 103L1504 102z"/>
<path style="fill:#211a58; stroke:none;" d="M1514 119C1505.71 116.545 1505.93 107.81 1512 103C1492.98 95.0969 1503.87 136.342 1514 119z"/>
<path style="fill:#7c72bd; stroke:none;" d="M1515 120C1515.56 117.646 1515.94 115.428 1515.98 112.998C1516.38 93.3099 1497.53 114.393 1515 120M1373.33 103.667L1373.67 104.333L1373.33 103.667M1425.33 103.667L1425.67 104.333L1425.33 103.667M1435 103L1436 104L1435 103M1461 103L1462 104L1461 103M1525 103L1526 104L1525 103M1307 104L1308 105L1307 104M1418 104L1419 105L1418 104M1484.33 104.667L1484.67 105.333L1484.33 104.667M1502 104L1503 105L1502 104M1237 105L1237 122L1238 122L1237 105M1290 105L1291 106L1290 105M1295.33 105.667L1295.67 106.333L1295.33 105.667M1306.33 105.667L1306.67 106.333L1306.33 105.667M1337 105L1338 106L1337 105M1348 105L1349 106L1348 105M1436 105L1437 106L1436 105M1460 105L1461 106L1460 105M1264.33 106.667L1264.67 107.333L1264.33 106.667M1374 106L1374 109L1375 109L1374 106M1417 106L1418 107L1417 106M1501 106L1501 120L1502 120L1501 106M1526 106L1526 112L1527 112L1526 106M1426 107L1427 108L1426 107M1305 108L1305 112L1306 112L1305 108M1347 108L1347 115L1348 115L1347 108M1437 108L1438 109L1437 108M1291 109L1291 115L1292 115L1291 109M1336 109L1336 115L1337 115L1336 109M1416 109L1417 110L1416 109M1427.33 109.667L1427.67 110.333L1427.33 109.667M1438 110L1439 111L1438 110M1415 111L1416 112L1415 111M1421 112L1421 113L1426 113L1421 112M1439.33 112.667L1439.67 113.333L1439.33 112.667M1485 112L1486 113L1485 112M1305 113L1305 117L1306 117L1305 113M1415.67 113.333L1416.33 113.667L1415.67 113.333M1526 113L1526 118L1527 118L1526 113M1264.33 115.667L1264.67 116.333L1264.33 115.667M1330 115L1330 121L1331 121L1330 115M1374 115L1374 118L1375 118L1374 115M1440 115L1441 116L1440 115M1348 117L1349 118L1348 117M1441 117L1442 118L1441 117M1265 118L1266 119L1265 118M1290.33 118.667L1290.67 119.333L1290.33 118.667M1306 118L1307 119L1306 118M1337.33 118.667L1337.67 119.333L1337.33 118.667M1484.33 118.667L1484.67 119.333L1484.33 118.667M1349 119L1350 120L1349 119M1266 120L1267 121L1266 120M1278 120L1279 121L1278 120M1307 120L1308 121L1307 120M1319 120L1320 121L1319 120M1373 120L1374 121L1373 120M1442 120L1443 121L1442 120M1460 120L1461 121L1460 120M1472 120L1473 121L1472 120M1525.33 120.667L1525.67 121.333L1525.33 120.667M1267 121L1268 122L1267 121M1277 121L1278 122L1277 121M1289.33 121.667L1289.67 122.333L1289.33 121.667M1308 121L1309 122L1308 121M1318 121L1319 122L1318 121M1351 121L1352 122L1351 121M1361 121L1362 122L1361 121M1461 121L1462 122L1461 121M1471 121L1472 122L1471 121M1513 121L1514 122L1513 121M1268 122L1269 123L1268 122M1276 122L1277 123L1276 122M1310 122L1311 123L1310 122M1316.67 122.333L1317.33 122.667L1316.67 122.333M1352 122L1353 123L1352 122M1372.33 122.667L1372.67 123.333L1372.33 122.667M1410.33 122.667L1410.67 123.333L1410.33 122.667z"/>
<path style="fill:#211a58; stroke:none;" d="M1409 127L1418 123C1413.56 121.153 1410.96 122.89 1409 127z"/>
<path style="fill:#7c72bd; stroke:none;" d="M1443 122L1444 123L1443 122M1462 122L1463 123L1462 122M1469.67 122.333L1470.33 122.667L1469.67 122.333M1483 122L1484 123L1483 122M1504 122L1505 123L1504 122M1511 122L1512 123L1511 122M1270 123L1270 124L1275 124L1270 123M1288 123L1289 124L1288 123M1313.67 123.333L1314.33 123.667L1313.67 123.333M1331.33 123.667L1331.67 124.333L1331.33 123.667M1354 123L1354 124L1358 124L1354 123M1465 123L1465 124L1468 124L1465 123M1506 123L1506 124L1510 124L1506 123M1524 123L1525 124L1524 123M1371 124L1372 125L1371 124M1444.33 124.667L1444.67 125.333L1444.33 124.667M1482 124L1483 125L1482 124M1287 125L1288 126L1287 125M1332 125L1333 126L1332 125M1370 125L1371 126L1370 125M1409 125L1410 126L1409 125M1481 125L1482 126L1481 125M1523 125L1524 126L1523 125M1445.33 126.667L1445.67 127.333L1445.33 126.667M1522 126L1523 127L1522 126z"/>
<path style="fill:#211a58; stroke:none;" d="M1322 128L1323 129L1322 128M1460 130L1460 140L1468 132L1460 130z"/>
<path style="fill:#7c72bd; stroke:none;" d="M1461 130L1462 131L1461 130z"/>
<path style="fill:#211a58; stroke:none;" d="M1502 130L1502 140L1509 132L1502 130z"/>
<path style="fill:#7c72bd; stroke:none;" d="M1503 130L1504 131L1503 130M1464 131L1464 132L1468 132L1464 131M1506 131L1506 132L1509 132L1506 131z"/>
<path style="fill:#cbcfe9; stroke:none;" d="M1954 204.439C1946.89 205.558 1940.06 208.205 1934 212.09C1890.13 240.226 1915.59 313.097 1968 305.572C1975.82 304.449 1983.41 302.084 1990 297.64C2034.33 267.758 2007.32 196.047 1954 204.439z"/>
<path style="fill:#7c72bd; stroke:none;" d="M1954 208L1954 209L1958 209L1954 208z"/>
<path style="fill:#211a58; stroke:none;" d="M1958 208.425C1938.55 211.043 1921.88 223.4 1916.76 243C1909.14 272.21 1933.44 305.336 1965 301.714C1984.84 299.437 2002.04 286.927 2007.24 267C2014.99 237.297 1989.89 204.134 1958 208.425z"/>
<path style="fill:#7c72bd; stroke:none;" d="M1966 208L1966 209L1970 209L1966 208M1950 209L1951 210L1950 209M1973 209L1974 210L1973 209M1946.67 210.333L1947.33 210.667L1946.67 210.333M1976.67 210.333L1977.33 210.667L1976.67 210.333M1944 211L1945 212L1944 211M1979 211L1980 212L1979 211M1942 212L1943 213L1942 212M1981 212L1982 213L1981 212M1940 213L1941 214L1940 213M1983 213L1984 214L1983 213M1938 214L1939 215L1938 214M1985 214L1986 215L1985 214M1936 215L1937 216L1936 215M1987 215L1988 216L1987 215M1935 216L1936 217L1935 216M1988 216L1989 217L1988 216M1933 217L1934 218L1933 217M1990 217L1991 218L1990 217M1932 218L1933 219L1932 218M1991 218L1992 219L1991 218z"/>
<path style="fill:#cbcfe9; stroke:none;" d="M734.015 219.653C727.008 221.917 727.002 228.846 727 235C726.995 248.666 726.93 262.334 727.001 276C727.035 282.549 728.572 288.608 736.001 289.786C765.119 294.403 798.485 290 828 290L1018 290L1603 290L1805 290L1856 290C1861.83 290 1871.06 291.751 1875.77 287.566C1880.07 283.745 1879 277.161 1879 272L1879 233C1878.99 227.292 1878.52 221.245 1872 219.434C1865.12 217.526 1856.11 219 1849 219L1801 219L1645 219L1010 219L819 219L761 219C752.797 219 741.865 217.116 734.015 219.653z"/>
<path style="fill:#7c72bd; stroke:none;" d="M1931 219L1932 220L1931 219M1992 219L1993 220L1992 219M1930 220L1931 221L1930 220z"/>
<path style="fill:#447737; stroke:none;" d="M1993 220L1994 221L1993 220z"/>
<path style="fill:#7c72bd; stroke:none;" d="M1927 223L1928 224L1927 223z"/>
<path style="fill:#447737; stroke:none;" d="M1996 223L1997 224L1996 223z"/>
<path style="fill:#7c72bd; stroke:none;" d="M1926 224L1927 225L1926 224M1997 224L1998 225L1997 224M1925 225L1926 226L1925 225M1998 225L1999 226L1998 225M1924 226L1925 227L1924 226M1999 226L2000 227L1999 226M1923 228L1924 229L1923 228M2000 228L2001 229L2000 228M1922 229L1923 230L1922 229M2001 229L2002 230L2001 229M1921 231L1922 232L1921 231M2002 231L2003 232L2002 231M1920 233L1921 234L1920 233M2003 233L2004 234L2003 233M1919 235L1920 236L1919 235M2004 235L2005 236L2004 235M1918 237L1919 238L1918 237z"/>
<path style="fill:#cbcfe9; stroke:none;" d="M1959 237L1959 252L1944 252L1944 258L1959 258L1959 273L1965 273L1965 258L1980 258L1980 252L1965 252L1965 237L1959 237z"/>
<path style="fill:#7c72bd; stroke:none;" d="M2005 237L2006 238L2005 237M1917.33 239.667L1917.67 240.333L1917.33 239.667M2006.33 239.667L2006.67 240.333L2006.33 239.667M1916 243L1917 244L1916 243M2007 243L2008 244L2007 243M1915 247L1915 251L1916 251L1915 247M2008 247L2008 251L2009 251L2008 247z"/>
<path style="fill:#211a58; stroke:none;" d="M2013 254C2013 278.703 1994.72 303.063 1969 305.826C1955.15 307.315 1944.05 303.34 1932 297C1952.96 324.956 1998.64 310.187 2010.71 282C2014.03 274.259 2016.45 262.023 2013 254z"/>
<path style="fill:#7c72bd; stroke:none;" d="M1915 259L1915 263L1916 263L1915 259M2008 259L2008 263L2009 263L2008 259M2012 262L2012 265L2013 265L2012 262M1916 266L1917 267L1916 266M2007 266L2008 267L2007 266M2011.33 267.667L2011.67 268.333L2011.33 267.667M1917.33 269.667L1917.67 270.333L1917.33 269.667M2006.33 269.667L2006.67 270.333L2006.33 269.667M2010.33 270.667L2010.67 271.333L2010.33 270.667M1918 272L1919 273L1918 272M2005 272L2006 273L2005 272M2009.33 273.667L2009.67 274.333L2009.33 273.667M1919 274L1920 275L1919 274M2004 274L2005 275L2004 274M1920 276L1921 277L1920 276M2003 276L2004 277L2003 276M2008 276L2009 277L2008 276M1921 278L1922 279L1921 278M2002 278L2003 279L2002 278M2007 278L2008 279L2007 278M1922 280L1923 281L1922 280M2001 280L2002 281L2001 280M2006 280L2007 281L2006 280M1923 281L1924 282L1923 281M2000 281L2001 282L2000 281M2005 281L2006 282L2005 281M1924 283L1925 284L1924 283M1999 283L2000 284L1999 283M2004 283L2005 284L2004 283M1925 284L1926 285L1925 284M1998 284L1999 285L1998 284M2003 284L2004 285L2003 284M1926 285L1927 286L1926 285M1997 285L1998 286L1997 285M1927 286L1928 287L1927 286M1996 286L1997 287L1996 286M2002 286L2003 287L2002 286M2001 287L2002 288L2001 287M2000 288L2001 289L2000 288M1930 289L1931 290L1930 289M1993 289L1994 290L1993 289M1999 289L2000 290L1999 289M1931 290L1932 291L1931 290M1992 290L1993 291L1992 290M1998 290L1999 291L1998 290M1932 291L1933 292L1932 291M1991 291L1992 292L1991 291M1997 291L1998 292L1997 291M1933 292L1934 293L1933 292M1990 292L1991 293L1990 292M1996 292L1997 293L1996 292M1935 293L1936 294L1935 293M1988 293L1989 294L1988 293M1995 293L1996 294L1995 293M1936 294L1937 295L1936 294M1987 294L1988 295L1987 294M1994 294L1995 295L1994 294M1938 295L1939 296L1938 295M1985 295L1986 296L1985 295M1993 295L1994 296L1993 295z"/>
<path style="fill:#211a58; stroke:none;" d="M1931 296L1932 297L1931 296z"/>
<path style="fill:#7c72bd; stroke:none;" d="M1940 296L1941 297L1940 296M1983 296L1984 297L1983 296M1991 296L1992 297L1991 296M1933 297L1934 298L1933 297M1942 297L1943 298L1942 297M1981 297L1982 298L1981 297M1990 297L1991 298L1990 297M1934.67 298.333L1935.33 298.667L1934.67 298.333M1944 298L1945 299L1944 298M1979 298L1980 299L1979 298M1988 298L1989 299L1988 298M1936 299L1937 300L1936 299M1946.67 299.333L1947.33 299.667L1946.67 299.333M1976.67 299.333L1977.33 299.667L1976.67 299.333M1987 299L1988 300L1987 299M1938 300L1939 301L1938 300M1950 300L1951 301L1950 300M1973 300L1974 301L1973 300M1985 300L1986 301L1985 300M1940 301L1941 302L1940 301M1954 301L1954 302L1958 302L1954 301M1966 301L1966 302L1970 302L1966 301M1983 301L1984 302L1983 301M1942.67 302.333L1943.33 302.667L1942.67 302.333M1980.67 302.333L1981.33 302.667L1980.67 302.333M1945.67 303.333L1946.33 303.667L1945.67 303.333M1977.67 303.333L1978.33 303.667L1977.67 303.333M1948.67 304.333L1949.33 304.667L1948.67 304.333M1974.67 304.333L1975.33 304.667L1974.67 304.333M1952 305L1952 306L1956 306L1952 305M1968 305L1968 306L1972 306L1968 305z"/>
<path style="fill:#cbcfe9; stroke:none;" d="M1119 402.465C1087.86 408.079 1078.99 452.008 1107 468.12C1118.06 474.482 1130.74 473 1143 473L1196 473C1205.05 473 1215.16 474.248 1224 472.1C1254.35 464.728 1261.12 421.415 1233 406.324C1221.7 400.261 1208.37 402 1196 402C1171.43 402 1143.17 398.107 1119 402.465M1312 402.465C1278.46 408.512 1272.44 456.566 1304 470.121C1318.51 476.353 1338.49 473 1354 473L1439 473C1452.56 473 1469 475.514 1482 471.251C1513.58 460.895 1513.58 414.105 1482 403.749C1465.2 398.241 1442.57 402 1425 402L1350 402C1337.76 402 1324.06 400.29 1312 402.465M1567 402.465C1538.5 407.603 1527.56 445.655 1550.01 464.671C1563.3 475.92 1581.87 473 1598 473C1605.49 473 1613.61 473.868 1621 472.535C1649.5 467.397 1660.44 429.345 1637.99 410.329C1624.7 399.08 1606.13 402 1590 402C1582.51 402 1574.39 401.132 1567 402.465z"/>
<path style="fill:#211a58; stroke:none;" d="M1136 428L1129 449L1143 445L1147 449C1145.55 442.907 1142.35 430.056 1136 428z"/>
<path style="fill:#7c72bd; stroke:none;" d="M1139 428L1140 429L1139 428z"/>
<path style="fill:#211a58; stroke:none;" d="M1176 428L1177 432L1179 432L1180 431L1180 429L1176 428z"/>
<path style="fill:#7c72bd; stroke:none;" d="M1179 428L1180 429L1179 428M1328 428L1329 429L1328 428z"/>
<path style="fill:#211a58; stroke:none;" d="M1340 445C1336.84 444.919 1332.83 446.95 1329.96 445.049C1325.14 441.849 1325.12 432.08 1331.97 431.314C1334.66 431.013 1336.88 433.743 1339 435C1338.35 426.583 1328 425.888 1324.18 433.044C1318.48 443.724 1331.71 454.395 1340 445z"/>
<path style="fill:#7c72bd; stroke:none;" d="M1336 428L1337 429L1336 428M1401 428L1401 449L1402 449L1401 428z"/>
<path style="fill:#211a58; stroke:none;" d="M1402 428L1402 449L1405 449L1405 428L1402 428z"/>
<path style="fill:#7c72bd; stroke:none;" d="M1405 428L1405 434L1406 434L1405 428z"/>
<path style="fill:#447737; stroke:none;" d="M1462 428L1462 435L1463 435L1462 428z"/>
<path style="fill:#211a58; stroke:none;" d="M1463 428L1463 435C1446.39 431.196 1452.56 454.029 1462 447L1463 447L1466 449L1466 428L1463 428M1584 428L1577 449L1586 445.117L1596 449C1593.53 442.639 1591.03 430.213 1584 428z"/>
<path style="fill:#447737; stroke:none;" d="M1587 428L1588 429L1587 428z"/>
<path style="fill:#211a58; stroke:none;" d="M1598 428L1598 449L1601 449L1602 428L1598 428M1606 428L1606 449L1609 449L1609 428L1606 428z"/>
<path style="fill:#447737; stroke:none;" d="M1609 428L1609 434L1610 434L1609 428M1135 429L1136 430L1135 429z"/>
<path style="fill:#7c72bd; stroke:none;" d="M1175 429L1176 430L1175 429M1326 429L1327 430L1326 429M1338 429L1339 430L1338 429M1588.33 429.667L1588.67 430.333L1588.33 429.667z"/>
<path style="fill:#211a58; stroke:none;" d="M1166 430L1164 435L1164 436C1167.66 440.831 1164.58 447.394 1172 449C1169.86 444.099 1167.63 440.284 1172 436L1170 430L1166 430z"/>
<path style="fill:#7c72bd; stroke:none;" d="M1325 430L1326 431L1325 430z"/>
<path style="fill:#447737; stroke:none;" d="M1331.67 430.333L1332.33 430.667L1331.67 430.333z"/>
<path style="fill:#7c72bd; stroke:none;" d="M1339 430L1339 433L1340 433L1339 430M1426 430L1424 434L1424 435L1426 430z"/>
<path style="fill:#211a58; stroke:none;" d="M1427 430L1425 435L1425 436C1427.84 441.317 1425.7 447.836 1433 449C1430.04 442.834 1430.04 440.166 1433 434L1430 430L1427 430z"/>
<path style="fill:#7c72bd; stroke:none;" d="M1430 430L1430 434L1431 434L1430 430M1583 430L1584 431L1583 430M1140 431L1141 432L1140 431z"/>
<path style="fill:#447737; stroke:none;" d="M1176 431L1177 432L1176 431M1335 431L1336 432L1335 431M1134 432L1135 433L1134 432z"/>
<path style="fill:#7c72bd; stroke:none;" d="M1323 433L1324 434L1323 433M1327 433L1328 434L1327 433M1336 433L1337 434L1336 433M1582 433L1583 434L1582 433z"/>
<path style="fill:#447737; stroke:none;" d="M1589 433L1590 434L1589 433z"/>
<path style="fill:#7c72bd; stroke:none;" d="M1133 434L1134 435L1133 434z"/>
<path style="fill:#447737; stroke:none;" d="M1137 434L1138 435L1137 434z"/>
<path style="fill:#7c72bd; stroke:none;" d="M1138 434L1139 435L1138 434z"/>
<path style="fill:#447737; stroke:none;" d="M1141 434L1142 435L1141 434z"/>
<path style="fill:#7c72bd; stroke:none;" d="M1153 434L1154 435L1153 434z"/>
<path style="fill:#211a58; stroke:none;" d="M1162 446C1151.34 446.764 1151.33 436.742 1162 437C1146.51 422.505 1147.58 460.712 1162 446z"/>
<path style="fill:#447737; stroke:none;" d="M1159 434L1160 435L1159 434z"/>
<path style="fill:#7c72bd; stroke:none;" d="M1164 434L1165 435L1164 434z"/>
<path style="fill:#447737; stroke:none;" d="M1165 434L1166 435L1165 434z"/>
<path style="fill:#7c72bd; stroke:none;" d="M1172.33 434.667L1172.67 435.333L1172.33 434.667z"/>
<path style="fill:#211a58; stroke:none;" d="M1176 434L1176 449L1179 449L1179 434L1176 434z"/>
<path style="fill:#7c72bd; stroke:none;" d="M1179 434L1180 435L1179 434z"/>
<path style="fill:#447737; stroke:none;" d="M1182 434L1183 435L1182 434z"/>
<path style="fill:#211a58; stroke:none;" d="M1182 435C1183.76 440.172 1185.37 447.228 1191 449C1192.44 444.746 1197.39 437.242 1193 434L1190 445L1189 445L1186 434L1182 435z"/>
<path style="fill:#447737; stroke:none;" d="M1195 434L1196 435L1195 434z"/>
<path style="fill:#7c72bd; stroke:none;" d="M1201 434L1202 435L1201 434z"/>
<path style="fill:#211a58; stroke:none;" d="M1211 446C1208.59 445.897 1205.41 446.747 1203.29 445.308C1198.31 441.932 1203.14 434.908 1208 440L1202 440L1202 442L1211 442C1210.3 435.767 1202.42 430.198 1198.86 438.109C1195 446.691 1204.93 451.684 1211 446z"/>
<path style="fill:#7c72bd; stroke:none;" d="M1207 434L1208 435L1207 434z"/>
<path style="fill:#447737; stroke:none;" d="M1346 434L1347 435L1346 434z"/>
<path style="fill:#211a58; stroke:none;" d="M1347.04 434.758C1338.37 438.004 1343.28 451.634 1351.96 448.392C1360.63 445.153 1355.76 431.496 1347.04 434.758z"/>
<path style="fill:#7c72bd; stroke:none;" d="M1352 434L1353 435L1352 434z"/>
<path style="fill:#211a58; stroke:none;" d="M1360 434C1360 438.895 1358.72 445.741 1363 449C1363 443.907 1362.37 438.778 1368 437L1368 449L1371 449C1371.6 444.257 1371.5 439.48 1376 437L1377 449L1380 449C1380 432.737 1374.19 435.194 1360 434z"/>
<path style="fill:#447737; stroke:none;" d="M1363 434L1364 435L1363 434M1365 434L1366 435L1365 434M1369 434L1370 435L1369 434M1373 434L1374 435L1373 434M1377 434L1378 435L1377 434z"/>
<path style="fill:#211a58; stroke:none;" d="M1384 434L1385 454L1388 454L1388 448C1394.95 449.973 1401.83 442.96 1396.26 436.434C1393.5 433.208 1387.8 434.137 1384 434z"/>
<path style="fill:#7c72bd; stroke:none;" d="M1389 434L1390 435L1389 434z"/>
<path style="fill:#447737; stroke:none;" d="M1394 434L1395 435L1394 434z"/>
<path style="fill:#7c72bd; stroke:none;" d="M1412 434L1413 435L1412 434z"/>
<path style="fill:#211a58; stroke:none;" d="M1422 446C1419.59 445.897 1416.41 446.747 1414.29 445.308C1409.31 441.932 1414.14 434.908 1419 440L1413 440L1413 442L1422 442C1421.3 435.767 1413.42 430.198 1409.86 438.109C1406 446.691 1415.93 451.684 1422 446z"/>
<path style="fill:#7c72bd; stroke:none;" d="M1418 434L1419 435L1418 434M1439 434L1440 435L1439 434z"/>
<path style="fill:#211a58; stroke:none;" d="M1448 445C1435.78 449.06 1439.44 432.852 1446 440L1440 440L1440 442L1449 442C1447.35 432.959 1434.84 431.744 1435.53 441.997C1435.98 448.576 1445.63 451.752 1448 445z"/>
<path style="fill:#7c72bd; stroke:none;" d="M1445 434L1446 435L1445 434M1455 434L1456 435L1455 434z"/>
<path style="fill:#cbcfe9; stroke:none;" d="M1586 434L1583 442L1589 442L1586 434z"/>
<path style="fill:#7c72bd; stroke:none;" d="M1609 434L1609 444L1610 444L1609 434z"/>
<path style="fill:#cbcfe9; stroke:none;" d="M1137 435L1135 442L1141 442L1137 435z"/>
<path style="fill:#7c72bd; stroke:none;" d="M1161 435L1162 436L1161 435z"/>
<path style="fill:#447737; stroke:none;" d="M1179.33 435.667L1179.67 436.333L1179.33 435.667M1326 435L1327 436L1326 435z"/>
<path style="fill:#7c72bd; stroke:none;" d="M1337.67 435.333L1338.33 435.667L1337.67 435.333z"/>
<path style="fill:#447737; stroke:none;" d="M1424 435L1425 436L1424 435z"/>
<path style="fill:#7c72bd; stroke:none;" d="M1587 435L1588 436L1587 435M1590 435L1591 436L1590 435z"/>
<path style="fill:#447737; stroke:none;" d="M1139 436L1140 437L1139 436z"/>
<path style="fill:#7c72bd; stroke:none;" d="M1142 436L1143 437L1142 436z"/>
<path style="fill:#447737; stroke:none;" d="M1156.67 436.333L1157.33 436.667L1156.67 436.333M1164.67 436.333L1165.33 436.667L1164.67 436.333M1170.67 436.333L1171.33 436.667L1170.67 436.333M1182 436L1183 437L1182 436z"/>
<path style="fill:#7c72bd; stroke:none;" d="M1186 436L1187 437L1186 436M1192 436L1193 437L1192 436M1195 436L1196 437L1195 436z"/>
<path style="fill:#447737; stroke:none;" d="M1199 436L1200 437L1199 436M1204.67 436.333L1205.33 436.667L1204.67 436.333z"/>
<path style="fill:#7c72bd; stroke:none;" d="M1326 436L1326 441L1327 441L1326 436M1348.67 436.333L1349.33 436.667L1348.67 436.333z"/>
<path style="fill:#447737; stroke:none;" d="M1350 436L1351 437L1350 436M1390.67 436.333L1391.33 436.667L1390.67 436.333M1410 436L1411 437L1410 436M1415.67 436.333L1416.33 436.667L1415.67 436.333M1425 436L1426 437L1425 436M1431.67 436.333L1432.33 436.667L1431.67 436.333M1442 436L1443 437L1442 436M1447 436L1448 437L1447 436M1458.67 436.333L1459.33 436.667L1458.67 436.333M1581 436L1582 437L1581 436z"/>
<path style="fill:#7c72bd; stroke:none;" d="M1132 437L1133 438L1132 437M1136 437L1137 438L1136 437M1139 437L1140 438L1139 437M1154 437L1155 438L1154 437z"/>
<path style="fill:#447737; stroke:none;" d="M1160 437L1161 438L1160 437z"/>
<path style="fill:#7c72bd; stroke:none;" d="M1161 437L1162 438L1161 437z"/>
<path style="fill:#447737; stroke:none;" d="M1169 437L1169 440L1170 440L1169 437z"/>
<path style="fill:#7c72bd; stroke:none;" d="M1179 437L1179 444L1180 444L1179 437z"/>
<path style="fill:#447737; stroke:none;" d="M1198 437L1199 438L1198 437z"/>
<path style="fill:#7c72bd; stroke:none;" d="M1202 437L1201 439L1202 437z"/>
<path style="fill:#cbcfe9; stroke:none;" d="M1201 440L1207 440L1207 437L1201 440z"/>
<path style="fill:#7c72bd; stroke:none;" d="M1210 437L1211 438L1210 437z"/>
<path style="fill:#447737; stroke:none;" d="M1346 437L1347 438L1346 437z"/>
<path style="fill:#cbcfe9; stroke:none;" d="M1347.59 438.047C1344.25 440.597 1347.43 448.455 1351.4 445.149C1354.52 442.547 1351.64 434.952 1347.59 438.047z"/>
<path style="fill:#447737; stroke:none;" d="M1364 437L1365 438L1364 437z"/>
<path style="fill:#cbcfe9; stroke:none;" d="M1394 446C1396.61 429.845 1380.64 444.959 1394 446z"/>
<path style="fill:#7c72bd; stroke:none;" d="M1393 437L1394 438L1393 437z"/>
<path style="fill:#447737; stroke:none;" d="M1397 437L1398 438L1397 437M1409 437L1410 438L1409 437z"/>
<path style="fill:#7c72bd; stroke:none;" d="M1413 437L1412 439L1413 437z"/>
<path style="fill:#cbcfe9; stroke:none;" d="M1412 440L1418 440L1418 437L1412 440z"/>
<path style="fill:#7c72bd; stroke:none;" d="M1421 437L1422 438L1421 437M1426 437L1426 445L1427 445L1426 437z"/>
<path style="fill:#cbcfe9; stroke:none;" d="M1439 440L1445 440C1443.04 437.006 1440.96 437.006 1439 440z"/>
<path style="fill:#7c72bd; stroke:none;" d="M1444 437L1445 438L1444 437M1452 437L1453 438L1452 437z"/>
<path style="fill:#447737; stroke:none;" d="M1456 437L1457 438L1456 437z"/>
<path style="fill:#cbcfe9; stroke:none;" d="M1457.42 438.086C1453.82 440.307 1456.66 447.506 1460.41 444.914C1463.38 442.869 1461.39 435.639 1457.42 438.086z"/>
<path style="fill:#7c72bd; stroke:none;" d="M1461 437L1462 438L1461 437M1591 437L1592 438L1591 437M1149 438L1150 439L1149 438M1153 438L1154 439L1153 438z"/>
<path style="fill:#447737; stroke:none;" d="M1207 438L1208 439L1207 438z"/>
<path style="fill:#7c72bd; stroke:none;" d="M1322 438L1323 439L1322 438z"/>
<path style="fill:#447737; stroke:none;" d="M1342 438L1343 439L1342 438z"/>
<path style="fill:#7c72bd; stroke:none;" d="M1352 438L1353 439L1352 438M1356 438L1357 439L1356 438z"/>
<path style="fill:#447737; stroke:none;" d="M1394 438L1395 439L1394 438M1418 438L1419 439L1418 438M1448 438L1449 439L1448 438z"/>
<path style="fill:#7c72bd; stroke:none;" d="M1584 438L1585 439L1584 438M1588 438L1589 439L1588 438M1135 439L1136 440L1135 439z"/>
<path style="fill:#447737; stroke:none;" d="M1140 439L1141 440L1140 439M1143 439L1144 440L1143 439z"/>
<path style="fill:#7c72bd; stroke:none;" d="M1183 439L1184 440L1183 439M1187 439L1188 440L1187 439z"/>
<path style="fill:#447737; stroke:none;" d="M1191 439L1192 440L1191 439z"/>
<path style="fill:#7c72bd; stroke:none;" d="M1194 439L1195 440L1194 439M1197.33 439.667L1197.67 440.333L1197.33 439.667M1207 439L1208 440L1207 439z"/>
<path style="fill:#447737; stroke:none;" d="M1345 439L1346 440L1345 439M1363 439L1363 449L1364 449L1363 439z"/>
<path style="fill:#7c72bd; stroke:none;" d="M1376 439L1376 449L1377 449L1376 439M1394 439L1395 440L1394 439M1408.33 439.667L1408.67 440.333L1408.33 439.667M1418 439L1419 440L1418 439z"/>
<path style="fill:#447737; stroke:none;" d="M1435 439L1436 440L1435 439M1445 439L1446 440L1445 439z"/>
<path style="fill:#7c72bd; stroke:none;" d="M1455 439L1456 440L1455 439M1462 439L1462 443L1463 443L1462 439z"/>
<path style="fill:#447737; stroke:none;" d="M1580 439L1581 440L1580 439M1601 439L1601 444L1602 444L1601 439z"/>
<path style="fill:#7c72bd; stroke:none;" d="M1131 440L1132 441L1131 440M1140 440L1141 441L1140 440M1169 440L1169 445L1170 445L1169 440M1201.33 440.667L1201.67 441.333L1201.33 440.667M1211.33 440.667L1211.67 441.333L1211.33 440.667M1345 440L1345 443L1346 443L1345 440z"/>
<path style="fill:#447737; stroke:none;" d="M1384 440L1384 445L1385 445L1384 440z"/>
<path style="fill:#7c72bd; stroke:none;" d="M1412.33 440.667L1412.67 441.333L1412.33 440.667M1422.33 440.667L1422.67 441.333L1422.33 440.667M1438.33 440.667L1438.67 441.333L1438.33 440.667z"/>
<path style="fill:#447737; stroke:none;" d="M1439.33 440.667L1439.67 441.333L1439.33 440.667z"/>
<path style="fill:#7c72bd; stroke:none;" d="M1583 440L1584 441L1583 440z"/>
<path style="fill:#447737; stroke:none;" d="M1592 440L1593 441L1592 440M1134 441L1135 442L1134 441z"/>
<path style="fill:#7c72bd; stroke:none;" d="M1144 441L1145 442L1144 441z"/>
<path style="fill:#447737; stroke:none;" d="M1152.33 441.667L1152.67 442.333L1152.33 441.667z"/>
<path style="fill:#7c72bd; stroke:none;" d="M1184 441L1185 442L1184 441z"/>
<path style="fill:#447737; stroke:none;" d="M1197 441L1198 442L1197 441M1200 441L1201 442L1200 441M1353.33 441.667L1353.67 442.333L1353.33 441.667z"/>
<path style="fill:#7c72bd; stroke:none;" d="M1398.33 441.667L1398.67 442.333L1398.33 441.667z"/>
<path style="fill:#447737; stroke:none;" d="M1408 441L1409 442L1408 441M1411 441L1412 442L1411 441z"/>
<path style="fill:#7c72bd; stroke:none;" d="M1451.33 441.667L1451.67 442.333L1451.33 441.667z"/>
<path style="fill:#447737; stroke:none;" d="M1465 441L1465 445L1466 445L1465 441z"/>
<path style="fill:#7c72bd; stroke:none;" d="M1579 441L1580 442L1579 441M1589 441L1590 442L1589 441M1134.67 442.333L1135.33 442.667L1134.67 442.333z"/>
<path style="fill:#447737; stroke:none;" d="M1136.67 442.333L1137.33 442.667L1136.67 442.333z"/>
<path style="fill:#7c72bd; stroke:none;" d="M1188 442L1189 443L1188 442z"/>
<path style="fill:#447737; stroke:none;" d="M1190 442L1191 443L1190 442z"/>
<path style="fill:#7c72bd; stroke:none;" d="M1193 442L1194 443L1193 442M1197.33 442.667L1197.67 443.333L1197.33 442.667M1202 442L1202 443L1211 443L1202 442M1408.33 442.667L1408.67 443.333L1408.33 442.667M1413 442L1413 443L1422 443L1413 442z"/>
<path style="fill:#447737; stroke:none;" d="M1438 442L1439 443L1438 442z"/>
<path style="fill:#7c72bd; stroke:none;" d="M1440 442L1440 443L1449 443L1440 442M1583.67 442.333L1584.33 442.667L1583.67 442.333z"/>
<path style="fill:#447737; stroke:none;" d="M1585 442L1586 443L1585 442z"/>
<path style="fill:#7c72bd; stroke:none;" d="M1593 442L1594 443L1593 442z"/>
<path style="fill:#447737; stroke:none;" d="M1130 443L1131 444L1130 443z"/>
<path style="fill:#7c72bd; stroke:none;" d="M1145 443L1146 444L1145 443z"/>
<path style="fill:#447737; stroke:none;" d="M1185 443L1186 444L1185 443z"/>
<path style="fill:#7c72bd; stroke:none;" d="M1323 443L1324 444L1323 443z"/>
<path style="fill:#447737; stroke:none;" d="M1327 443L1328 444L1327 443z"/>
<path style="fill:#7c72bd; stroke:none;" d="M1338 443L1339 444L1338 443M1394.33 443.667L1394.67 444.333L1394.33 443.667z"/>
<path style="fill:#447737; stroke:none;" d="M1435 443L1436 444L1435 443z"/>
<path style="fill:#7c72bd; stroke:none;" d="M1455 443L1456 444L1455 443z"/>
<path style="fill:#447737; stroke:none;" d="M1462 443L1463 444L1462 443M1149 444L1150 445L1149 444z"/>
<path style="fill:#7c72bd; stroke:none;" d="M1153 444L1154 445L1153 444M1189 444L1190 445L1189 444z"/>
<path style="fill:#447737; stroke:none;" d="M1192 444L1193 445L1192 444z"/>
<path style="fill:#7c72bd; stroke:none;" d="M1201 444L1202 445L1201 444M1328 444L1329 445L1328 444M1337 444L1338 445L1337 444z"/>
<path style="fill:#447737; stroke:none;" d="M1339 444L1340 445L1339 444M1342 444L1343 445L1342 444z"/>
<path style="fill:#7c72bd; stroke:none;" d="M1356 444L1357 445L1356 444M1412 444L1413 445L1412 444M1435 444L1436 445L1435 444z"/>
<path style="fill:#447737; stroke:none;" d="M1455 444L1456 445L1455 444z"/>
<path style="fill:#7c72bd; stroke:none;" d="M1578 444L1579 445L1578 444M1601 444L1601 449L1602 449L1601 444M1129 445L1130 446L1129 445z"/>
<path style="fill:#447737; stroke:none;" d="M1142 445L1143 446L1142 445z"/>
<path style="fill:#7c72bd; stroke:none;" d="M1160 445L1161 446L1160 445z"/>
<path style="fill:#447737; stroke:none;" d="M1161 445L1162 446L1161 445M1166 445L1167 446L1166 445M1198 445L1199 446L1198 445z"/>
<path style="fill:#7c72bd; stroke:none;" d="M1202 445L1203 446L1202 445z"/>
<path style="fill:#447737; stroke:none;" d="M1210 445L1211 446L1210 445z"/>
<path style="fill:#7c72bd; stroke:none;" d="M1324 445L1325 446L1324 445M1329 445L1330 446L1329 445z"/>
<path style="fill:#447737; stroke:none;" d="M1352 445L1353 446L1352 445M1371 445L1371 448L1372 448L1371 445z"/>
<path style="fill:#7c72bd; stroke:none;" d="M1384 445L1384 454L1385 454L1384 445M1388 445L1389 446L1388 445z"/>
<path style="fill:#447737; stroke:none;" d="M1397 445L1398 446L1397 445M1409 445L1410 446L1409 445z"/>
<path style="fill:#7c72bd; stroke:none;" d="M1413 445L1414 446L1413 445z"/>
<path style="fill:#447737; stroke:none;" d="M1421 445L1422 446L1421 445z"/>
<path style="fill:#7c72bd; stroke:none;" d="M1446 445L1447 446L1446 445M1448 445L1449 446L1448 445z"/>
<path style="fill:#447737; stroke:none;" d="M1452 445L1453 446L1452 445z"/>
<path style="fill:#7c72bd; stroke:none;" d="M1456 445L1457 446L1456 445M1461 445L1462 446L1461 445M1581 445L1582 446L1581 445z"/>
<path style="fill:#447737; stroke:none;" d="M1594 445L1595 446L1594 445M1129 446L1130 447L1129 446z"/>
<path style="fill:#7c72bd; stroke:none;" d="M1132 446L1133 447L1132 446M1142 446L1143 447L1142 446z"/>
<path style="fill:#447737; stroke:none;" d="M1146 446L1147 447L1146 446z"/>
<path style="fill:#7c72bd; stroke:none;" d="M1150 446L1151 447L1150 446M1156.67 446.333L1157.33 446.667L1156.67 446.333z"/>
<path style="fill:#447737; stroke:none;" d="M1158 446L1159 447L1158 446z"/>
<path style="fill:#7c72bd; stroke:none;" d="M1166 446L1167 447L1166 446M1170 446L1171 447L1170 446M1186 446L1187 447L1186 446z"/>
<path style="fill:#447737; stroke:none;" d="M1203 446L1204 447L1203 446z"/>
<path style="fill:#7c72bd; stroke:none;" d="M1204.67 446.333L1205.33 446.667L1204.67 446.333z"/>
<path style="fill:#447737; stroke:none;" d="M1206 446L1207 447L1206 446M1325 446L1326 447L1325 446M1332 446L1333 447L1332 446z"/>
<path style="fill:#7c72bd; stroke:none;" d="M1343 446L1344 447L1343 446M1348 446L1349 447L1348 446M1350 446L1351 447L1350 446z"/>
<path style="fill:#447737; stroke:none;" d="M1360 446L1360 449L1361 449L1360 446z"/>
<path style="fill:#7c72bd; stroke:none;" d="M1390.67 446.333L1391.33 446.667L1390.67 446.333z"/>
<path style="fill:#447737; stroke:none;" d="M1392 446L1393 447L1392 446M1414 446L1415 447L1414 446z"/>
<path style="fill:#7c72bd; stroke:none;" d="M1415.67 446.333L1416.33 446.667L1415.67 446.333z"/>
<path style="fill:#447737; stroke:none;" d="M1417 446L1418 447L1417 446M1441 446L1442 447L1441 446z"/>
<path style="fill:#7c72bd; stroke:none;" d="M1442.67 446.333L1443.33 446.667L1442.67 446.333z"/>
<path style="fill:#447737; stroke:none;" d="M1444 446L1445 447L1444 446M1448 446L1449 447L1448 446z"/>
<path style="fill:#7c72bd; stroke:none;" d="M1458.67 446.333L1459.33 446.667L1458.67 446.333z"/>
<path style="fill:#447737; stroke:none;" d="M1460 446L1461 447L1460 446M1151 447L1152 448L1151 447z"/>
<path style="fill:#7c72bd; stroke:none;" d="M1161 447L1162 448L1161 447M1172 447L1173 448L1172 447M1191 447L1192 448L1191 447M1326 447L1327 448L1326 447M1344 447L1345 448L1344 447M1396 447L1397 448L1396 447M1427 447L1428 448L1427 447M1462 447L1463 448L1462 447M1466 447L1467 448L1466 447M1577 447L1578 448L1577 447M1580 447L1581 448L1580 447M1591 447L1592 448L1591 447M1595 447L1596 448L1595 447M1128 448L1129 449L1128 448M1131 448L1132 449L1131 448z"/>
<path style="fill:#447737; stroke:none;" d="M1143 448L1144 449L1143 448z"/>
<path style="fill:#7c72bd; stroke:none;" d="M1147 448L1148 449L1147 448z"/>
<path style="fill:#447737; stroke:none;" d="M1153 448L1154 449L1153 448z"/>
<path style="fill:#7c72bd; stroke:none;" d="M1168 448L1169 449L1168 448M1187 448L1188 449L1187 448z"/>
<path style="fill:#447737; stroke:none;" d="M1201 448L1202 449L1201 448z"/>
<path style="fill:#7c72bd; stroke:none;" d="M1208 448L1209 449L1208 448z"/>
<path style="fill:#447737; stroke:none;" d="M1328 448L1329 449L1328 448z"/>
<path style="fill:#7c72bd; stroke:none;" d="M1336 448L1337 449L1336 448M1345 448L1346 449L1345 448M1371 448L1372 449L1371 448z"/>
<path style="fill:#447737; stroke:none;" d="M1412 448L1413 449L1412 448z"/>
<path style="fill:#7c72bd; stroke:none;" d="M1419 448L1420 449L1419 448z"/>
<path style="fill:#447737; stroke:none;" d="M1439 448L1440 449L1439 448z"/>
<path style="fill:#7c72bd; stroke:none;" d="M1446 448L1447 449L1446 448z"/>
<path style="fill:#447737; stroke:none;" d="M1455 448L1456 449L1455 448M1466 448L1467 449L1466 448z"/>
<path style="fill:#7c72bd; stroke:none;" d="M1331.67 449.333L1332.33 449.667L1331.67 449.333M1385 454L1386 455L1385 454z"/>
<path style="fill:#cbcfe9; stroke:none;" d="M86 537.533C67.1459 542.116 74 577.554 74 592L74 740C74 753.319 68.4765 781.734 81.0154 790.297C90.097 796.499 108.422 793 119 793L216 793L514 793L601 793C612.477 793 629.234 796.074 640 791.852C656.564 785.356 650 751.236 650 737L650 588C650 574.553 655.749 545.648 640.999 538.573C629.683 533.144 609.406 537 597 537L493 537L215 537L128 537C114.904 537 98.7376 534.437 86 537.533M694 537.533C675.146 542.116 682 577.554 682 592L682 740C682 753.319 676.477 781.734 689.015 790.297C698.097 796.499 716.422 793 727 793L824 793L1122 793L1209 793C1220.48 793 1237.23 796.074 1248 791.852C1264.56 785.356 1258 751.236 1258 737L1258 588C1258 574.553 1263.75 545.648 1249 538.573C1237.68 533.144 1217.41 537 1205 537L1101 537L823 537L736 537C722.904 537 706.738 534.437 694 537.533M1302 537.533C1283.15 542.116 1290 577.554 1290 592L1290 740C1290 753.319 1284.48 781.734 1297.02 790.297C1306.1 796.499 1324.42 793 1335 793L1432 793L1730 793L1817 793C1828.48 793 1845.23 796.074 1856 791.852C1872.56 785.356 1866 751.236 1866 737L1866 588C1866 574.553 1871.75 545.648 1857 538.573C1845.68 533.144 1825.41 537 1813 537L1709 537L1431 537L1344 537C1330.9 537 1314.74 534.437 1302 537.533M1910 537.533C1891.15 542.116 1898 577.554 1898 592L1898 740C1898 753.319 1892.48 781.734 1905.02 790.297C1914.1 796.499 1932.42 793 1943 793L2040 793L2338 793L2425 793C2436.48 793 2453.23 796.074 2464 791.852C2480.56 785.356 2474 751.236 2474 737L2474 588C2474 574.553 2479.75 545.648 2465 538.573C2453.68 533.144 2433.41 537 2421 537L2317 537L2039 537L1952 537C1938.9 537 1922.74 534.437 1910 537.533z"/>
<path style="fill:#7c72bd; stroke:none;" d="M122 595L123 596L122 595z"/>
<path style="fill:#211a58; stroke:none;" d="M123 595C126.626 604.904 127.263 606.118 123 616L130 609L139 616C134.779 606.216 134.341 604.998 138 595L132 602L130 602L123 595z"/>
<path style="fill:#7c72bd; stroke:none;" d="M126 595L127 596L126 595M138 595L139 596L138 595z"/>
<path style="fill:#211a58; stroke:none;" d="M730 595L737 616L740 616L746 595L739 605C736.29 600.726 735.489 595.907 730 595z"/>
<path style="fill:#7c72bd; stroke:none;" d="M734 595L735 596L734 595M746.333 595.667L746.667 596.333L746.333 595.667M1343 595L1343 596L1350 596L1343 595z"/>
<path style="fill:#211a58; stroke:none;" d="M1341 596L1341 598L1350 598L1340 616L1354 616L1354 613L1343 614L1354 595L1341 596z"/>
<path style="fill:#7c72bd; stroke:none;" d="M1946 595L1946 598L1947 598L1946 595z"/>
<path style="fill:#211a58; stroke:none;" d="M1947 595C1947.37 600.476 1949.23 614.311 1955 616L1960 603L1962 616C1967.99 614.248 1969.77 600.586 1971 595L1967 595L1965 609L1964 609L1961 596L1957 596L1954 609C1952.18 604.177 1952.43 596.796 1947 595z"/>
<path style="fill:#7c72bd; stroke:none;" d="M1950 595L1951 596L1950 595M1957 595L1957 596L1960 596L1957 595M1971 595L1972 596L1971 595M134 596L135 597L134 596M730 596L731 597L730 596M743 596L744 597L743 596M1340 596L1341 597L1340 596M1354 596L1354 599L1355 599L1354 596M1956 596L1956 599L1957 599L1956 596M1960 597L1961 598L1960 597M1966.33 597.667L1966.67 598.333L1966.33 597.667M1970.33 597.667L1970.67 598.333L1970.33 597.667M124 598L125 599L124 598M128 598L129 599L128 598M133 598L134 599L133 598M136 598L137 599L136 598M731 598L732 599L731 598M735 598L736 599L735 598M742 598L743 599L742 598M745 598L746 599L745 598M1347 598L1347 599L1350 600L1347 598M1951 598L1951 601L1952 601L1951 598M132 599L133 600L132 599M741 599L742 600L741 599M1947.33 599.667L1947.67 600.333L1947.33 599.667M125 600L126 601L125 600M129 600L130 601L129 600M135 600L136 601L135 600M732 600L733 601L732 600M736 600L737 601L736 600M744 600L745 601L744 600M1348 600L1349 601L1348 600M1961.33 600.667L1961.67 601.333L1961.33 600.667M1969.33 600.667L1969.67 601.333L1969.33 600.667M130.667 601.333L131.333 601.667L130.667 601.333M740 601L741 602L740 601M1352 601L1353 602L1352 601M1955.33 601.667L1955.67 602.333L1955.33 601.667M733 602L734 603L733 602M743 602L744 603L743 602M1351 602L1352 603L1351 602M1965.33 602.667L1965.67 603.333L1965.33 602.667M127 603L128 604L127 603M133 603L134 604L133 603M737 603L738 604L737 603M739 603L740 604L739 603M1346 603L1347 604L1346 603M1350 603L1351 604L1350 603M1948 603L1949 604L1948 603M1952.33 603.667L1952.67 604.333L1952.33 603.667M1958 603L1960 605L1960 603L1958 603M1962.33 603.667L1962.67 604.333L1962.33 603.667M734 604L735 605L734 604M738 604L739 605L738 604M742 604L743 605L742 604M1345 604L1346 605L1345 604M1968 604L1969 605L1968 604M128.333 605.667L128.667 606.333L128.333 605.667M133 606L134 607L133 606M735 606L736 607L735 606M741 606L742 607L741 606M1949.33 606.667L1949.67 607.333L1949.33 606.667M1954 606L1953 609L1954 606M1957 606L1958 607L1957 606M1964 606L1965 609L1964 606M127 607L128 608L127 607M1343 607L1344 608L1343 607M1347 607L1348 608L1347 607M1960.33 607.667L1960.67 608.333L1960.33 607.667M1967 607L1968 608L1967 607M736 608L736 616L737 616L736 608M740 608L740 614L741 614L740 608M1342 608L1343 609L1342 608M1346 608L1347 609L1346 608M126 609L127 610L126 609M135 609L136 610L135 609M1950.33 609.667L1950.67 610.333L1950.33 609.667M1956 609L1957 610L1956 609M129 610L130 611L129 610M131 610L132 611L131 610M1341 610L1342 611L1341 610M1966 610L1967 611L1966 610M132 611L133 612L132 611M1340 611L1341 612L1340 611M124 612L125 613L124 612M128 612L129 613L128 612M137 612L138 613L137 612M1343 612L1343 614L1345 614L1343 612M1351 612L1351 613L1354 616L1355 616L1355 612L1351 612M1955 612L1956 613L1955 612M1961.33 612.667L1961.67 613.333L1961.33 612.667M127 613L128 614L127 613M133 613L134 614L133 613M1339 613L1339 616L1340 616L1339 613M1951 613L1952 614L1951 613M1965 613L1965 616L1966 616L1965 613M123 614L124 615L123 614M138 614L139 615L138 614M1955.33 614.667L1955.67 615.333L1955.33 614.667M122 615L123 616L122 615M126 615L127 616L126 615M134 615L135 616L134 615M139 615L140 616L139 615M125 616L126 617L125 616M135 616L136 617L135 616z"/>
<path style="fill:#447737; stroke:none;" d="M602 702L616 687C610.409 689.607 603.064 695.768 602 702M1210 702L1224 687C1218.41 689.607 1211.06 695.768 1210 702M1818 702L1832 687C1826.41 689.607 1819.06 695.768 1818 702M2426 702L2440 687C2434.41 689.607 2427.06 695.768 2426 702M610 702L616 695L610 702M1218 702L1224 695L1218 702M1826 702L1832 695L1826 702M2434 702L2440 695L2434 702z"/>
<path style="fill:#7c72bd; stroke:none;" d="M416 708L408 717L416 708z"/>
<path style="fill:#211a58; stroke:none;" d="M417 708C408.655 716.345 398.262 723.358 398 736C410.371 735.014 416.764 724.237 425 716L425 715L417 708z"/>
<path style="fill:#7c72bd; stroke:none;" d="M418 708L419 709L418 708M1024 708L1016 717L1024 708z"/>
<path style="fill:#211a58; stroke:none;" d="M1025 708C1016.65 716.345 1006.26 723.358 1006 736C1018.37 735.014 1024.76 724.237 1033 716L1033 715L1025 708z"/>
<path style="fill:#7c72bd; stroke:none;" d="M1026 708L1027 709L1026 708M1632 708L1624 717L1632 708z"/>
<path style="fill:#211a58; stroke:none;" d="M1633 708C1624.65 716.345 1614.26 723.358 1614 736C1626.37 735.014 1632.76 724.237 1641 716L1641 715L1633 708z"/>
<path style="fill:#7c72bd; stroke:none;" d="M1634 708L1635 709L1634 708M2240 708L2232 717L2240 708z"/>
<path style="fill:#211a58; stroke:none;" d="M2241 708C2232.65 716.345 2222.26 723.358 2222 736C2234.37 735.014 2240.76 724.237 2249 716L2249 715L2241 708z"/>
<path style="fill:#7c72bd; stroke:none;" d="M2242 708L2243 709L2242 708M419 709L420 710L419 709M1027 709L1028 710L1027 709M1635 709L1636 710L1635 709M2243 709L2244 710L2243 709M420 710L421 711L420 710M1028 710L1029 711L1028 710M1636 710L1637 711L1636 710M2244 710L2245 711L2244 710M421 711L422 712L421 711M1029 711L1030 712L1029 711M1637 711L1638 712L1637 711M2245 711L2246 712L2245 711M422 712L423 713L422 712z"/>
<path style="fill:#447737; stroke:none;" d="M490 728L491 729L493 729L505 713L504 712C498.026 714.911 492.39 721.832 490 728z"/>
<path style="fill:#7c72bd; stroke:none;" d="M510 712L511 713L510 712z"/>
<path style="fill:#447737; stroke:none;" d="M493 734L483 727L482 728C491.365 748.083 508.535 725.261 514 713L513 712C505.437 715.685 496.848 726.58 493 734z"/>
<path style="fill:#7c72bd; stroke:none;" d="M1030 712L1031 713L1030 712z"/>
<path style="fill:#447737; stroke:none;" d="M1098 728L1099 729L1101 729L1113 713L1112 712C1106.03 714.911 1100.39 721.831 1098 728z"/>
<path style="fill:#7c72bd; stroke:none;" d="M1118 712L1119 713L1118 712z"/>
<path style="fill:#447737; stroke:none;" d="M1101 734L1091 727L1090 728C1099.37 748.083 1116.54 725.261 1122 713L1121 712C1113.44 715.685 1104.85 726.58 1101 734z"/>
<path style="fill:#7c72bd; stroke:none;" d="M1638 712L1639 713L1638 712z"/>
<path style="fill:#447737; stroke:none;" d="M1706 728L1707 729L1709 729L1721 713L1720 712C1714.03 714.911 1708.39 721.831 1706 728z"/>
<path style="fill:#7c72bd; stroke:none;" d="M1726 712L1727 713L1726 712z"/>
<path style="fill:#447737; stroke:none;" d="M1709 734L1699 727L1698 728C1707.37 748.083 1724.54 725.261 1730 713L1729 712C1721.44 715.685 1712.85 726.58 1709 734z"/>
<path style="fill:#7c72bd; stroke:none;" d="M2246 712L2247 713L2246 712z"/>
<path style="fill:#447737; stroke:none;" d="M2314 728L2315 729L2317 729L2329 713L2328 712C2322.03 714.911 2316.39 721.831 2314 728z"/>
<path style="fill:#7c72bd; stroke:none;" d="M2334 712L2335 713L2334 712z"/>
<path style="fill:#447737; stroke:none;" d="M2317 734L2307 727L2306 728C2315.37 748.083 2332.54 725.261 2338 713L2337 712C2329.44 715.685 2320.85 726.58 2317 734z"/>
<path style="fill:#7c72bd; stroke:none;" d="M423 713L424 714L423 713M586 713L587 714L586 713M1031 713L1032 714L1031 713M1194 713L1195 714L1194 713M1639 713L1640 714L1639 713M1802 713L1803 714L1802 713M2247 713L2248 714L2247 713M2410 713L2411 714L2410 713M424 714L425 715L424 714z"/>
<path style="fill:#e63728; stroke:none;" d="M565 714L571.369 726L565 737L576 730.631L588 737L581.631 725L588 714L577 720.369L565 714z"/>
<path style="fill:#7c72bd; stroke:none;" d="M568 714L569 715L568 714M584 714L585 715L584 714M1032 714L1033 715L1032 714z"/>
<path style="fill:#e63728; stroke:none;" d="M1173 714L1179.37 725L1173 737L1185 730.631L1196 737L1189.63 725L1196 714L1185 720.369L1173 714z"/>
<path style="fill:#7c72bd; stroke:none;" d="M1176 714L1177 715L1176 714M1192 714L1193 715L1192 714M1640 714L1641 715L1640 714z"/>
<path style="fill:#e63728; stroke:none;" d="M1781 714L1787.37 725L1781 737L1793 730.631L1804 737L1797.63 725L1804 714L1793 720.369L1781 714z"/>
<path style="fill:#7c72bd; stroke:none;" d="M1784 714L1785 715L1784 714M1800 714L1801 715L1800 714M2248 714L2249 715L2248 714z"/>
<path style="fill:#e63728; stroke:none;" d="M2389 714L2395.37 726L2389 737L2401 730.631L2412 737L2405.63 725L2412 714L2401 720.369L2389 714z"/>
<path style="fill:#7c72bd; stroke:none;" d="M2392 714L2393 715L2392 714M2408 714L2409 715L2408 714M504 715L505 716L504 715M513 715L514 716L513 715M564 715L565 716L564 715M569 715L570 716L569 715M583 715L584 716L583 715M1112 715L1113 716L1112 715M1121 715L1122 716L1121 715M1172 715L1173 716L1172 715M1177 715L1178 716L1177 715M1191 715L1192 716L1191 715M1720 715L1721 716L1720 715M1729 715L1730 716L1729 715M1780 715L1781 716L1780 715M1785 715L1786 716L1785 715M1799 715L1800 716L1799 715M2328 715L2329 716L2328 715M2337 715L2338 716L2337 715M2388 715L2389 716L2388 715M2393 715L2394 716L2393 715M2407 715L2408 716L2407 715M424 716L425 717L424 716M498 716L499 717L498 716M503 716L504 717L503 716M507 716L508 717L507 716M512 716L513 717L512 716M570 716L571 717L570 716M582 716L583 717L582 716M1032 716L1033 717L1032 716M1106 716L1107 717L1106 716M1111 716L1112 717L1111 716M1115 716L1116 717L1115 716M1120 716L1121 717L1120 716M1178 716L1179 717L1178 716M1190 716L1191 717L1190 716M1640 716L1641 717L1640 716M1714 716L1715 717L1714 716M1719 716L1720 717L1719 716M1723 716L1724 717L1723 716M1728 716L1729 717L1728 716M1786 716L1787 717L1786 716M1798 716L1799 717L1798 716M2248 716L2249 717L2248 716M2322 716L2323 717L2322 716M2327 716L2328 717L2327 716M2331 716L2332 717L2331 716M2336 716L2337 717L2336 716M2394 716L2395 717L2394 716M2406 716L2407 717L2406 716M423 717L424 718L423 717M497 717L498 718L497 717M502 717L503 718L502 717M506 717L507 718L506 717M511 717L512 718L511 717M565 717L566 718L565 717M571 717L572 718L571 717M581 717L582 718L581 717M587 717L588 718L587 717M1031 717L1032 718L1031 717M1105 717L1106 718L1105 717M1110 717L1111 718L1110 717M1114 717L1115 718L1114 717M1119 717L1120 718L1119 717M1173 717L1174 718L1173 717M1179 717L1180 718L1179 717M1189 717L1190 718L1189 717M1195 717L1196 718L1195 717M1639 717L1640 718L1639 717M1713 717L1714 718L1713 717M1718 717L1719 718L1718 717M1722 717L1723 718L1722 717M1727 717L1728 718L1727 717M1781 717L1782 718L1781 717M1787 717L1788 718L1787 717M1797 717L1798 718L1797 717M1803 717L1804 718L1803 717M2247 717L2248 718L2247 717M2321 717L2322 718L2321 717M2326 717L2327 718L2326 717M2330 717L2331 718L2330 717M2335 717L2336 718L2335 717M2389 717L2390 718L2389 717M2395 717L2396 718L2395 717M2405 717L2406 718L2405 717M2411 717L2412 718L2411 717M422 718L423 719L422 718M496 718L497 719L496 718M501 718L502 719L501 718M505 718L506 719L505 718M510 718L511 719L510 718M566 718L567 719L566 718M572 718L573 719L572 718M580 718L581 719L580 718M586 718L587 719L586 718M1030 718L1031 719L1030 718M1104 718L1105 719L1104 718M1109 718L1110 719L1109 718M1113 718L1114 719L1113 718M1118 718L1119 719L1118 718M1174 718L1175 719L1174 718M1180 718L1181 719L1180 718M1188 718L1189 719L1188 718M1194 718L1195 719L1194 718M1638 718L1639 719L1638 718M1712 718L1713 719L1712 718M1717 718L1718 719L1717 718M1721 718L1722 719L1721 718M1726 718L1727 719L1726 718M1782 718L1783 719L1782 718M1788 718L1789 719L1788 718M1796 718L1797 719L1796 718M1802 718L1803 719L1802 718M2246 718L2247 719L2246 718M2320 718L2321 719L2320 718M2325 718L2326 719L2325 718M2329 718L2330 719L2329 718M2334 718L2335 719L2334 718M2390 718L2391 719L2390 718M2396 718L2397 719L2396 718M2404 718L2405 719L2404 718M2410 718L2411 719L2410 718M421 719L422 720L421 719M495 719L496 720L495 719M504 719L505 720L504 719M567 719L568 720L567 719M573 719L574 720L573 719M579 719L580 720L579 719M585 719L586 720L585 719M1029 719L1030 720L1029 719M1103 719L1104 720L1103 719M1112 719L1113 720L1112 719M1175 719L1176 720L1175 719M1181 719L1182 720L1181 719M1187 719L1188 720L1187 719M1193 719L1194 720L1193 719M1637 719L1638 720L1637 719M1711 719L1712 720L1711 719M1720 719L1721 720L1720 719M1783 719L1784 720L1783 719M1789 719L1790 720L1789 719M1795 719L1796 720L1795 719M1801 719L1802 720L1801 719M2245 719L2246 720L2245 719M2319 719L2320 720L2319 719M2328 719L2329 720L2328 719M2391 719L2392 720L2391 719M2397 719L2398 720L2397 719M2403 719L2404 720L2403 719M2409 719L2410 720L2409 719M420 720L421 721L420 720M568 720L569 721L568 720M574 720L575 721L574 720M578 720L579 721L578 720M584 720L585 721L584 720M1028 720L1029 721L1028 720M1176 720L1177 721L1176 720M1182 720L1183 721L1182 720M1186 720L1187 721L1186 720M1192 720L1193 721L1192 720M1636 720L1637 721L1636 720M1784 720L1785 721L1784 720M1790 720L1791 721L1790 720M1794 720L1795 721L1794 720M1800 720L1801 721L1800 720M2244 720L2245 721L2244 720M2392 720L2393 721L2392 720M2398 720L2399 721L2398 720M2402 720L2403 721L2402 720M2408 720L2409 721L2408 720M419 721L420 722L419 721M569 721L570 722L569 721M575 721L576 722L575 721M577 721L578 722L577 721M583 721L584 722L583 721M1027 721L1028 722L1027 721M1177 721L1178 722L1177 721M1183 721L1184 722L1183 721M1185 721L1186 722L1185 721M1191 721L1192 722L1191 721M1635 721L1636 722L1635 721M1785 721L1786 722L1785 721M1791 721L1792 722L1791 721M1793 721L1794 722L1793 721M1799 721L1800 722L1799 721M2243 721L2244 722L2243 721M2393 721L2394 722L2393 721M2399 721L2400 722L2399 721M2401 721L2402 722L2401 721M2407 721L2408 722L2407 721M418 722L419 723L418 722M570 722L571 723L570 722M582 722L583 723L582 722M1026 722L1027 723L1026 722M1178 722L1179 723L1178 722M1190 722L1191 723L1190 722M1634 722L1635 723L1634 722M1786 722L1787 723L1786 722M1798 722L1799 723L1798 722M2242 722L2243 723L2242 722M2394 722L2395 723L2394 722M2406 722L2407 723L2406 722M417 723L418 724L417 723M497 723L498 724L497 723M506 723L507 724L506 723M571 723L572 724L571 723M581 723L582 724L581 723M1025 723L1026 724L1025 723M1105 723L1106 724L1105 723M1114 723L1115 724L1114 723M1179 723L1180 724L1179 723M1189 723L1190 724L1189 723M1633 723L1634 724L1633 723M1713 723L1714 724L1713 723M1722 723L1723 724L1722 723M1787 723L1788 724L1787 723M1797 723L1798 724L1797 723M2241 723L2242 724L2241 723M2321 723L2322 724L2321 723M2330 723L2331 724L2330 723M2395 723L2396 724L2395 723M2405 723L2406 724L2405 723M416 724L417 725L416 724M491 724L492 725L491 724M496 724L497 725L496 724M500 724L501 725L500 724M505 724L506 725L505 724M572 724L573 725L572 724M580 724L581 725L580 724M1024 724L1025 725L1024 724M1099 724L1100 725L1099 724M1104 724L1105 725L1104 724M1108 724L1109 725L1108 724M1113 724L1114 725L1113 724M1180 724L1181 725L1180 724M1188 724L1189 725L1188 724M1632 724L1633 725L1632 724M1707 724L1708 725L1707 724M1712 724L1713 725L1712 724M1716 724L1717 725L1716 724M1721 724L1722 725L1721 724M1788 724L1789 725L1788 724M1796 724L1797 725L1796 724M2240 724L2241 725L2240 724M2315 724L2316 725L2315 724M2320 724L2321 725L2320 724M2324 724L2325 725L2324 724M2329 724L2330 725L2329 724M2396 724L2397 725L2396 724M2404 724L2405 725L2404 724M415 725L416 726L415 725M490 725L491 726L490 725M495 725L496 726L495 725M499 725L500 726L499 725M504 725L505 726L504 725M1023 725L1024 726L1023 725M1098 725L1099 726L1098 725M1103 725L1104 726L1103 725M1107 725L1108 726L1107 725M1112 725L1113 726L1112 725M1631 725L1632 726L1631 725M1706 725L1707 726L1706 725M1711 725L1712 726L1711 725M1715 725L1716 726L1715 725M1720 725L1721 726L1720 725M2239 725L2240 726L2239 725M2314 725L2315 726L2314 725M2319 725L2320 726L2319 725M2323 725L2324 726L2323 725M2328 725L2329 726L2328 725M414 726L415 727L414 726M472 729C477.928 728.152 482.743 733.492 484 739C486.845 733.717 476.975 724.452 472 729M483.667 726.333L484.333 726.667L483.667 726.333M489.333 726.667L489.667 727.333L489.333 726.667M494 726L495 727L494 726M498 726L499 727L498 726M503 726L504 727L503 726M572 726L573 727L572 726M580 726L581 727L580 726M1022 726L1023 727L1022 726M1080 729C1085.93 728.152 1090.74 733.492 1092 739C1094.85 733.717 1084.97 724.452 1080 729M1091.67 726.333L1092.33 726.667L1091.67 726.333M1097.33 726.667L1097.67 727.333L1097.33 726.667M1102 726L1103 727L1102 726M1106 726L1107 727L1106 726M1111 726L1112 727L1111 726M1180 726L1181 727L1180 726M1188 726L1189 727L1188 726M1630 726L1631 727L1630 726M1688 729C1693.93 728.152 1698.74 733.492 1700 739C1702.85 733.717 1692.97 724.452 1688 729M1699.67 726.333L1700.33 726.667L1699.67 726.333M1705.33 726.667L1705.67 727.333L1705.33 726.667M1710 726L1711 727L1710 726M1714 726L1715 727L1714 726M1719 726L1720 727L1719 726M1788 726L1789 727L1788 726M1796 726L1797 727L1796 726M2238 726L2239 727L2238 726M2296 729C2301.93 728.152 2306.74 733.492 2308 739C2310.85 733.717 2300.97 724.452 2296 729M2307.67 726.333L2308.33 726.667L2307.67 726.333M2313.33 726.667L2313.67 727.333L2313.33 726.667M2318 726L2319 727L2318 726M2322 726L2323 727L2322 726M2327 726L2328 727L2327 726M2396 726L2397 727L2396 726M2404 726L2405 727L2404 726M398 727L398 730L399 730L398 727M413 727L414 728L413 727z"/>
<path style="fill:#447737; stroke:none;" d="M474 727L473 728L484 739L485 738L474 727z"/>
<path style="fill:#7c72bd; stroke:none;" d="M482 727L483 728L482 727M485 727L486 728L485 727M497 727L498 728L497 727M571 727L572 728L571 727M581 727L582 728L581 727M1006 727L1006 730L1007 730L1006 727M1021 727L1022 728L1021 727z"/>
<path style="fill:#447737; stroke:none;" d="M1082 727L1081 728L1092 739L1093 738L1082 727z"/>
<path style="fill:#7c72bd; stroke:none;" d="M1090 727L1091 728L1090 727M1093 727L1094 728L1093 727M1105 727L1106 728L1105 727M1179 727L1180 728L1179 727M1189 727L1190 728L1189 727M1614 727L1614 730L1615 730L1614 727M1629 727L1630 728L1629 727z"/>
<path style="fill:#447737; stroke:none;" d="M1690 727L1689 728L1700 739L1701 738L1690 727z"/>
<path style="fill:#7c72bd; stroke:none;" d="M1698 727L1699 728L1698 727M1701 727L1702 728L1701 727M1713 727L1714 728L1713 727M1787 727L1788 728L1787 727M1797 727L1798 728L1797 727M2222 727L2222 730L2223 730L2222 727M2237 727L2238 728L2237 727z"/>
<path style="fill:#447737; stroke:none;" d="M2298 727L2297 728L2308 739L2309 738L2298 727z"/>
<path style="fill:#7c72bd; stroke:none;" d="M2306 727L2307 728L2306 727M2309 727L2310 728L2309 727M2321 727L2322 728L2321 727M2395 727L2396 728L2395 727M2405 727L2406 728L2405 727M481 728L482 729L481 728M486 728L487 729L486 728M490 728L491 729L490 728M570 728L571 729L570 728M582 728L583 729L582 728M1089 728L1090 729L1089 728M1094 728L1095 729L1094 728M1098 728L1099 729L1098 728M1178 728L1179 729L1178 728M1190 728L1191 729L1190 728M1697 728L1698 729L1697 728M1702 728L1703 729L1702 728M1706 728L1707 729L1706 728M1786 728L1787 729L1786 728M1798 728L1799 729L1798 728M2305 728L2306 729L2305 728M2310 728L2311 729L2310 728M2314 728L2315 729L2314 728M2394 728L2395 729L2394 728M2406 728L2407 729L2406 728M487 729L488 730L487 729M491 729L492 730L491 729M569 729L570 730L569 729M575 729L576 730L575 729M577 729L578 730L577 729M583 729L584 730L583 729M1095 729L1096 730L1095 729M1099 729L1100 730L1099 729M1177 729L1178 730L1177 729M1183 729L1184 730L1183 729M1185 729L1186 730L1185 729M1191 729L1192 730L1191 729M1703 729L1704 730L1703 729M1707 729L1708 730L1707 729M1785 729L1786 730L1785 729M1791 729L1792 730L1791 729M1793 729L1794 730L1793 729M1799 729L1800 730L1799 729M2311 729L2312 730L2311 729M2315 729L2316 730L2315 729M2393 729L2394 730L2393 729M2399 729L2400 730L2399 729M2401 729L2402 730L2401 729M2407 729L2408 730L2407 729M488 730L489 731L488 730M568 730L569 731L568 730M574 730L575 731L574 730M578 730L579 731L578 730M584 730L585 731L584 730M1096 730L1097 731L1096 730M1176 730L1177 731L1176 730M1182 730L1183 731L1182 730M1186 730L1187 731L1186 730M1192 730L1193 731L1192 730M1704 730L1705 731L1704 730M1784 730L1785 731L1784 730M1790 730L1791 731L1790 730M1794 730L1795 731L1794 730M1800 730L1801 731L1800 730M2312 730L2313 731L2312 730M2392 730L2393 731L2392 730M2398 730L2399 731L2398 730M2402 730L2403 731L2402 730M2408 730L2409 731L2408 730M489 731L490 732L489 731M499 731L500 732L499 731M567 731L568 732L567 731M573 731L574 732L573 731M579 731L580 732L579 731M585 731L586 732L585 731M1097 731L1098 732L1097 731M1107 731L1108 732L1107 731M1175 731L1176 732L1175 731M1181 731L1182 732L1181 731M1187 731L1188 732L1187 731M1193 731L1194 732L1193 731M1705 731L1706 732L1705 731M1715 731L1716 732L1715 731M1783 731L1784 732L1783 731M1789 731L1790 732L1789 731M1795 731L1796 732L1795 731M1801 731L1802 732L1801 731M2313 731L2314 732L2313 731M2323 731L2324 732L2323 731M2391 731L2392 732L2391 731M2397 731L2398 732L2397 731M2403 731L2404 732L2403 731M2409 731L2410 732L2409 731M490 732L491 733L490 732M493 732L494 733L493 732M498 732L499 733L498 732M566 732L567 733L566 732M572 732L573 733L572 732M580 732L581 733L580 732M586 732L587 733L586 732M1098 732L1099 733L1098 732M1101 732L1102 733L1101 732M1106 732L1107 733L1106 732M1174 732L1175 733L1174 732M1180 732L1181 733L1180 732M1188 732L1189 733L1188 732M1194 732L1195 733L1194 732M1706 732L1707 733L1706 732M1709 732L1710 733L1709 732M1714 732L1715 733L1714 732M1782 732L1783 733L1782 732M1788 732L1789 733L1788 732M1796 732L1797 733L1796 732M1802 732L1803 733L1802 732M2314 732L2315 733L2314 732M2317 732L2318 733L2317 732M2322 732L2323 733L2322 732M2390 732L2391 733L2390 732M2396 732L2397 733L2396 732M2404 732L2405 733L2404 732M2410 732L2411 733L2410 732M397.333 733.667L397.667 734.333L397.333 733.667M491.667 733.333L492.333 733.667L491.667 733.333M497 733L498 734L497 733M565 733L566 734L565 733M571 733L572 734L571 733M581 733L582 734L581 733M587 733L588 734L587 733M1005.33 733.667L1005.67 734.333L1005.33 733.667M1099.67 733.333L1100.33 733.667L1099.67 733.333M1105 733L1106 734L1105 733M1173 733L1174 734L1173 733M1179 733L1180 734L1179 733M1189 733L1190 734L1189 733M1195 733L1196 734L1195 733M1613.33 733.667L1613.67 734.333L1613.33 733.667M1707.67 733.333L1708.33 733.667L1707.67 733.333M1713 733L1714 734L1713 733M1781 733L1782 734L1781 733M1787 733L1788 734L1787 733M1797 733L1798 734L1797 733M1803 733L1804 734L1803 733M2221.33 733.667L2221.67 734.333L2221.33 733.667M2315.67 733.333L2316.33 733.667L2315.67 733.333M2321 733L2322 734L2321 733M2389 733L2390 734L2389 733M2395 733L2396 734L2395 733M2405 733L2406 734L2405 733M2411 733L2412 734L2411 733M496 734L497 735L496 734M570 734L571 735L570 734M582 734L583 735L582 734M1104 734L1105 735L1104 734M1178 734L1179 735L1178 734M1190 734L1191 735L1190 734M1712 734L1713 735L1712 734M1786 734L1787 735L1786 734M1798 734L1799 735L1798 734M2320 734L2321 735L2320 734M2394 734L2395 735L2394 734M2406 734L2407 735L2406 734M402.667 735.333L403.333 735.667L402.667 735.333M569 735L570 736L569 735M583 735L584 736L583 735M588 735L589 736L588 735M1010.67 735.333L1011.33 735.667L1010.67 735.333M1177 735L1178 736L1177 735M1191 735L1192 736L1191 735M1196 735L1197 736L1196 735M1618.67 735.333L1619.33 735.667L1618.67 735.333M1785 735L1786 736L1785 735M1799 735L1800 736L1799 735M1804 735L1805 736L1804 735M2226.67 735.333L2227.33 735.667L2226.67 735.333M2393 735L2394 736L2393 735M2407 735L2408 736L2407 735M2412 735L2413 736L2412 735M568 736L569 737L568 736M584 736L585 737L584 736M1176 736L1177 737L1176 736M1192 736L1193 737L1192 736M1784 736L1785 737L1784 736M1800 736L1801 737L1800 736M2392 736L2393 737L2392 736M2408 736L2409 737L2408 736M566 737L567 738L566 737M1174 737L1175 738L1174 737M1782 737L1783 738L1782 737M2390 737L2391 738L2390 737M394 739L394 740L426 740L394 739M1002 739L1002 740L1034 740L1002 739M1610 739L1610 740L1642 740L1610 739M2218 739L2218 740L2250 740L2218 739z"/>
<path style="fill:#211a58; stroke:none;" d="M393 740L393 743L427 743L427 740L393 740M1001 740L1001 743L1035 743L1035 740L1001 740M1609 740L1609 743L1643 743L1643 740L1609 740M2217 740L2217 743L2251 743L2251 740L2217 740z"/>
<path style="fill:#7c72bd; stroke:none;" d="M392.333 741.667L392.667 742.333L392.333 741.667M427.333 741.667L427.667 742.333L427.333 741.667M1000.33 741.667L1000.67 742.333L1000.33 741.667M1035.33 741.667L1035.67 742.333L1035.33 741.667M1608.33 741.667L1608.67 742.333L1608.33 741.667M1643.33 741.667L1643.67 742.333L1643.33 741.667M2216.33 741.667L2216.67 742.333L2216.33 741.667M2251.33 741.667L2251.67 742.333L2251.33 741.667z"/>
</svg>
