<?xml version="1.0" encoding="utf-8"?>
<!-- Svg Vector Icons : http://www.onlinewebfonts.com/icon -->
<!DOCTYPE svg PUBLIC "-//W3C//DTD SVG 1.1//EN" "http://www.w3.org/Graphics/SVG/1.1/DTD/svg11.dtd">
<svg version="1.1" xmlns="http://www.w3.org/2000/svg" xmlns:xlink="http://www.w3.org/1999/xlink" x="0px" y="0px" viewBox="0 0 1000 1000" enable-background="new 0 0 1000 1000" xml:space="preserve">
<metadata> Svg Vector Icons : http://www.onlinewebfonts.com/icon </metadata>
<g><g transform="translate(0.000000,512.000000) scale(0.100000,-0.100000)"><path d="M6422.5,4983.6c-107.3-19.2-205-40.2-216.5-47.9c-11.5-7.7-21.1-42.1-21.1-76.6c0-57.5,61.3-392.7,88.1-475.1c7.7-24.9-3.8-40.2-36.4-51.7c-38.3-15.3-459.8-90-576.6-103.4c-32.6-3.8-42.2,24.9-78.6,216.5c-24.9,120.7-59.4,258.6-78.6,304.6l-32.6,84.3l-130.3-13.4c-126.4-11.5-335.2-49.8-480.8-90c-90-23-91.9-44.1-24.9-356.3c26.8-124.5,47.9-241.4,47.9-258.6c0-19.2-24.9-40.2-61.3-51.7c-86.2-26.8-501.9-97.7-582.4-97.7c-72.8,0-70.9-7.7-153.3,379.3c-28.7,128.4-61.3,247.1-74.7,264.4c-19.2,26.8-36.4,26.8-195.4,0c-95.8-17.2-272-53.7-390.8-80.5l-212.7-49.8l11.5-103.4c5.8-55.6,40.2-197.3,76.6-314.2c44.1-149.4,57.5-216.5,42.1-228c-26.8-23-205-53.7-400.4-70.9l-147.5-11.5l-26.8,63.2c-15.3,36.4-49.8,172.4-78.5,304.6c-26.8,130.3-53.6,241.4-57.5,245.2c-21.1,23-247.1-1.9-446.4-46c-245.2-55.6-300.8-72.8-319.9-101.5c-15.3-26.8,34.5-293.1,95.8-507.7c28.7-92,46-172.4,40.2-178.2c-3.8-3.8-203.1-57.5-440.6-118.8c-486.6-122.6-538.3-149.4-628.4-323.8c-120.7-235.6-103.5-434.9,260.5-3011.5c99.6-701.2,220.3-1563.2,270.1-1915.7c216.5-1544.1,383.1-2394.7,523-2651.4c61.3-113,182-206.9,329.5-254.8c164.8-53.6,624.5-46,1053.7,19.2c1224.2,185.8,4639.9,856.3,4956,975.1c145.6,53.6,371.6,206.9,454,310.4c86.2,101.5,262.4,501.9,318,716.5c21.1,80.5,38.3,187.7,38.3,241.4c0,224.1-180.1,1563.2-327.6,2425.3c-114.9,674.3-185.8,1023-478.9,2346.8c-413.8,1864-503.9,2193.5-609.2,2251c-44.1,23-285.4-15.3-546-86.2c-93.8-24.9-176.2-42.2-183.9-38.3c-17.3,9.6-59.4,162.8-114.9,417.6l-42.1,185.8l-107.3-1.9C6665.7,5018.1,6527.8,5000.8,6422.5,4983.6z M6713.6,4675.2c65.1-274,160.9-752.9,160.9-793.1c0-40.2-13.4-49.8-95.8-67.1c-53.6-11.5-109.2-21.1-122.6-21.1c-34.5,0-237.5,871.7-214.6,929.1c11.5,32.6,114.9,65.1,191.6,61.3C6684.9,4780.5,6692.6,4772.9,6713.6,4675.2z M5361.1,4498.9c42.1-201.2,115-676.2,115-756.7c0-72.8-5.8-86.2-51.7-103.4c-30.6-11.5-82.4-23-118.8-24.9c-65.1-1.9-67.1,1.9-99.6,103.4c-36.4,120.7-128.3,620.7-136,745.2c-5.7,74.7,0,90,42.1,111.1c26.8,13.4,88.1,24.9,137.9,24.9h88.1L5361.1,4498.9z M3874.5,4288.2c57.5-199.2,147.5-620.7,159-747.1c13.4-147.5,9.6-151.3-180.1-178.2c-122.6-15.3-105.4-53.6-235.6,475.1c-92,371.7-111.1,492.3-80.5,492.3c7.7,1.9,57.5,13.4,109.2,28.7C3822.8,4407,3840,4401.2,3874.5,4288.2z M7560.4,4240.3c40.2-74.7,463.6-1967.5,463.6-2067.1c0-23-38.3-1.9-111.1,61.3c-44.1,36.4-90,61.3-101.5,53.6c-28.8-17.2-78.6-139.8-65.1-160.9c5.7-9.6,84.3-61.3,172.4-114.9c88.1-53.6,166.7-105.4,170.5-113c15.3-23,72.8-365.9,65.1-385.1c-3.8-9.6-78.5,13.4-166.7,49.8c-97.7,42.1-166.7,61.3-178.2,49.8c-9.6-9.6-15.3-49.8-11.5-90c5.7-72.8,7.7-74.7,229.9-189.7l224.1-116.9l51.7-206.9c26.8-113,47.9-210.7,42.1-214.6c-3.8-3.8-86.2,40.2-182,99.6c-208.8,126.4-241.4,124.5-231.8-7.7l5.7-92l193.5-105.4c107.3-57.5,206.9-116.9,224.1-130.3c30.7-26.8,82.4-208.8,65.2-228c-5.7-5.7-95.8,44.1-197.3,107.3c-103.5,65.1-201.2,114.9-218.4,113c-19.2-3.8-30.6-32.6-34.5-84.3c-7.7-93.9-5.7-95.8,298.9-272L8478,75.5l49.8-224.2c26.8-122.6,47.9-224.1,46-226c-1.9-1.9-93.9,47.9-205,109.2c-109.2,63.2-214.6,113-231.8,113c-34.5,0-74.7-76.6-74.7-143.7c0-38.3,42.1-70.9,268.2-203.1c241.4-143.7,270.1-166.7,287.3-228c30.6-103.5,99.6-519.2,90-530.7c-5.7-5.8-57.5,24.9-114.9,67.1c-191.6,143.7-457.9,310.3-490.4,310.3c-36.4,0-78.5-72.8-78.5-134.1c0-46,47.9-84.3,398.5-323.8c159-109.2,295-212.6,298.9-229.9c5.7-17.2,15.3-103.4,23-191.6l13.4-162.9l-55.5,38.3c-30.6,19.2-174.3,116.9-319.9,214.6c-145.6,95.8-277.8,176.3-291.2,176.3c-34.5,0-59.4-47.9-74.7-143.7c-13.4-72.8-9.6-78.5,49.8-113c34.5-21.1,214.6-134.1,400.4-254.8l339.1-216.5l21.1-147.5c19.2-134.1,19.2-153.3-13.4-195.4c-19.2-26.8-44.1-49.8-53.6-53.6s-84.3,47.9-164.8,115c-206.9,172.4-408,319.9-436.8,319.9c-44.1,0-95.8-61.3-95.8-113c0-44.1,38.3-78.5,241.4-228c132.2-97.7,235.6-183.9,228-193.5c-7.7-13.4-210.7-86.2-465.5-166.7c-13.4-3.8-114.9,78.5-224.1,183.9c-118.8,113-218.4,191.6-239.5,191.6c-47.9,0-126.4-49.8-141.8-88.1c-19.2-47.9,15.4-90,168.6-206.9c80.4-61.3,145.6-118.8,145.6-126.4c0-21.1-86.2-51.7-237.6-86.2l-132.2-30.6l-141.8,153.3c-122.6,134.1-151.3,155.2-206.9,155.2c-34.5,0-72.8-13.4-86.2-28.7c-21.1-24.9-3.8-49.8,107.3-164.7c120.7-126.4,128.3-137.9,95.8-160.9c-19.1-15.3-247.1-78.5-505.7-141.8c-760.6-185.8-1249.1-287.4-2034.5-423.4c-300.8-51.7-714.6-124.5-919.6-162.8c-461.7-88.1-779.7-107.3-946.4-59.4c-145.6,42.1-272,159-352.5,325.7c-291.2,597.7-636,2245.2-990.4,4733.8c-124.5,871.7-166.7,1268.2-170.5,1588.1l-1.9,287.4l61.3,42.1c78.5,51.7,310.3,114.9,547.9,149.4c166.7,23,185.8,21.1,193.5-5.7c59.4-212.6,130.3-421.5,149.4-448.3c23-30.7,38.3-28.7,254.8,15.3c197.3,40.2,488.5,116.9,488.5,130.3c0,1.9-17.2,103.5-38.3,224.1c-51.7,298.9-51.7,319.9,15.3,333.3c136,28.7,310.4,49.8,398.5,49.8h97.7l42.1-157.1c24.9-88.1,57.5-183.9,72.8-212.6c24.9-49.8,32.6-53.6,116.9-42.1c208.8,28.7,569,90,609.2,107.3c53.6,19.2,55.6,51.7,17.2,228c-15.3,69-26.8,155.2-28.7,193.5v69l302.7,42.1c164.8,21.1,310.4,40.2,323.8,40.2c11.5,0,30.6-59.4,44.1-137.9c13.4-76.6,34.5-168.6,49.8-203.1l24.9-61.3l111.1,11.5c164.7,17.2,637.9,97.7,651.4,109.2c5.7,5.8-7.7,88.1-30.6,182c-61.3,262.5-74.7,243.3,176.2,289.3c251,46,396.6,67.1,396.6,57.5c0-26.8,59.4-335.3,76.6-400.4l21.1-80.5l99.6,13.4c183.9,23,574.7,90,616.9,105.4l42.2,15.3l-44.1,237.6c-24.9,128.3-36.4,243.3-28.8,251c19.2,19.2,285.4,65.1,388.9,69C7522.1,4272.9,7548.9,4263.3,7560.4,4240.3z M2485.6,4087c46-172.4,174.3-846.7,174.3-917.6c0-101.5-34.5-130.3-160.9-132.2h-97.7l-53.6,162.8c-72.8,218.4-205,741.4-205,808.4c0,59.4,28.7,80.5,176.3,118.8C2462.6,4167.5,2464.6,4165.6,2485.6,4087z M8809.5-2982c0-7.7-36.4-86.2-78.5-174.3c-113-226-222.2-333.3-392.7-385.1c-456-139.9-3406.2-729.9-4452.2-890.8c-532.6-82.4-819.9-111.1-1130.3-113c-335.2-3.8-390.8,11.5-501.9,136c-114.9,132.2-237.5,448.3-275.9,712.7l-11.5,86.2l70.9-105.4c149.4-222.2,296.9-333.3,569-423.4c228-76.6,444.4-90,724.1-47.9c398.5,61.3,2712.7,498.1,3524.9,664.7C7571.9-3374.7,8160-3210,8617.9-3028C8765.4-2968.6,8809.5-2959,8809.5-2982z"/><path d="M7186.8,3073.6c-11.5-5.7-63.2-130.3-111.1-277.8c-49.8-145.6-95.8-270.1-103.5-273.9c-7.6-5.8-122.6,70.9-252.9,170.5c-130.3,99.6-247.1,182-258.6,182c-32.6,0-126.4-130.3-118.8-166.7c3.8-26.8,390.8-308.4,530.7-388.9c24.9-13.4,23-36.4-11.5-164.8c-23-84.3-38.3-155.2-34.5-159c3.8-1.9,49.8,0,103.4,7.7c95.8,13.4,95.8,13.4,134.1,116.9c86.2,228,289.3,862.1,289.3,900.4C7353.5,3069.8,7253.9,3100.4,7186.8,3073.6z"/><path d="M1659.9,2793.9c-28.7-21.1-30.6-46-13.4-197.3c24.9-249,74.7-546,105.4-616.9c19.2-51.7,36.4-63.2,80.5-63.2c32.6,0,76.6,15.3,101.5,36.4c44.1,34.5,44.1,34.5,19.2,243.3c-13.4,114.9-38.3,298.9-55.6,410l-32.6,201.2l-86.2,5.7C1728.9,2816.9,1679.1,2807.3,1659.9,2793.9z"/><path d="M5738.5,2759.4c-53.7-42.1-84.3-155.2-174.3-632.2c-69-362.1-70.9-348.7,51.7-341l99.6,5.7l5.7,137.9c5.8,159,13.4,166.7,168.6,187.7l97.7,11.5l51.7-116.9c28.7-65.1,65.1-122.6,78.5-126.4c38.3-15.3,162.8,44.1,162.8,78.5c0,42.1-109.2,304.6-249,593.9c-113,235.6-116.9,239.5-180.1,239.5C5817.1,2797.8,5765.4,2780.5,5738.5,2759.4z M5888,2410.8c38.3-70.9,38.3-70.9,0-99.6c-78.6-59.4-105.4-40.2-105.4,76.6c0,90,5.7,105.4,34.5,99.6C5834.3,2483.6,5866.9,2449.1,5888,2410.8z"/><path d="M4719.4,2579.4c-157.1-36.4-335.2-105.4-346.7-134.1c-21.1-55.6,168.6-798.9,216.5-846.8c36.4-34.5,69-26.8,270.1,72.8c180.1,88.1,327.6,212.6,375.5,310.3c49.8,107.3,40.2,254.8-28.7,392.7C5106.3,2575.5,4964.6,2634.9,4719.4,2579.4z M4956.9,2368.6c111.1-59.4,128.4-214.6,40.2-369.7c-61.3-107.3-183.9-205-243.3-193.5c-40.2,7.7-114.9,241.4-134.1,421.5l-11.5,111.1l65.1,26.8C4757.7,2401.2,4887.9,2403.1,4956.9,2368.6z"/><path d="M3642.7,2259.4c-74.7-21.1-170.5-114.9-210.7-206.9c-47.9-107.3-44.1-319.9,7.7-415.7c51.7-97.7,182-212.7,258.6-228c157.1-34.5,390.8,126.4,436.8,298.9c59.4,216.5-53.6,459.8-252.9,542.1C3803.7,2284.3,3734.7,2286.3,3642.7,2259.4z M3838.1,2043c95.8-97.7,107.3-318,17.2-408.1c-116.9-116.9-275.9,11.5-275.9,226.1C3579.5,2048.7,3727,2154.1,3838.1,2043z"/><path d="M2782.6,2144.5c-413.8-78.5-436.8-88.1-444.4-172.4c-3.8-44.1,5.7-82.4,28.7-111.1l34.5-42.1l124.5,38.3c69,23,130.3,40.2,136,40.2c23,0,55.6-103.4,122.6-371.7c34.5-145.6,72.8-274,84.3-285.4c26.8-26.8,151.3,30.6,168.6,76.6c11.5,26.8-32.6,270.1-103.5,592c-7.7,38.3,1.9,42.1,120.7,55.6c174.3,19.2,180.1,21.1,180.1,105.4C3234.7,2226.9,3223.2,2228.8,2782.6,2144.5z"/><path d="M6979.9,1634.9c-563.2-105.4-2982.8-614.9-3716.5-781.6c-613-139.8-561.3-124.5-574.7-185.8c-17.2-72.8,5.7-168.6,44.1-182c42.2-17.2,195.4,11.5,1019.2,187.7c1053.6,226.1,3387,745.2,3492.4,775.9c36.4,11.5,44.1,90,13.4,168.6C7236.6,1675.1,7207.9,1677.1,6979.9,1634.9z"/><path d="M7104.5,542.9C6368.8,416.5,4204-58.6,4156.1-104.6c-19.2-17.3-21.1-49.8-11.5-122.6c7.7-53.6,19.2-101.5,24.9-105.4C4188.7-344,7183,293.9,7275,328.4c47.9,19.2,47.9,57.5,3.8,176.3C7257.7,558.3,7229,564,7104.5,542.9z"/><path d="M3186.8,10.4c-321.8-44.1-450.2-70.9-480.8-99.6c-23-23-26.8-57.5-17.2-157.1c21.1-226.1,70.9-526.8,95.8-590c24.9-57.5,34.5-63.2,114.9-63.2c99.6,0,369.7,57.5,601.5,126.4l160.9,49.8l-13.4,178.2c-11.5,178.2-32.6,323.8-70.9,494.3l-21.1,90l-97.7-1.9C3403.3,35.3,3282.6,23.8,3186.8,10.4z M3376.4-188.9c5.8-9.6,24.9-101.5,42.1-205c38.3-224.2,44.1-216.5-189.7-266.3c-220.3-46-266.3-38.3-296.9,53.6c-11.5,40.2-28.7,132.2-34.5,205c-11.5,118.8-9.6,132.2,26.8,151.3C3037.4-188.9,3351.5-146.7,3376.4-188.9z"/><path d="M7363.1-863.2c-1511.5-279.7-2831.4-555.6-2921.5-611.1c-30.7-19.2-32.6-185.8-1.9-216.5c9.6-9.6,69-5.7,149.4,11.5c2705,592,2975.1,653.3,2975.1,683.9c0,19.2-9.6,59.4-21.1,93.9C7520.2-838.3,7514.4-836.4,7363.1-863.2z"/><path d="M3232.8-1340.2c-111.1-17.2-251-47.9-312.3-65.1l-111.1-32.6l13.4-80.5c21.1-130.3,124.5-549.8,157.1-630.3c15.3-40.2,38.3-72.8,51.7-74.7c147.5-13.4,745.2,126.4,808.4,187.7c24.9,24.9,28.7,55.5,17.2,157.1c-15.3,157.1-57.5,365.9-97.7,486.6l-30.7,90l-145.6-1.9C3502.9-1303.8,3343.9-1321.1,3232.8-1340.2z M3614-1619.9c13.4-40.2,26.8-116.9,28.7-170.5l3.8-95.8l-172.4-42.1c-93.9-23-208.8-47.9-252.9-55.5l-78.5-11.5l-30.6,103.5c-15.3,55.5-34.5,137.9-42.2,182l-11.5,78.5l101.5,21.1c266.3,51.7,392.7,74.7,410,70.9C3581.4-1543.3,3600.6-1577.8,3614-1619.9z"/><path d="M7401.4-2052.9c-93.9-19.2-434.9-93.9-756.7-160.9c-1120.7-239.5-1959.8-434.9-2095.8-486.6c-42.2-15.3-49.8-30.6-49.8-90c0-132.2,1.9-132.2,327.6-63.2c344.8,70.9,1864,411.9,2494.3,557.5c475.1,109.2,469.4,105.4,406.2,228C7690.6-1999.2,7652.3-1997.3,7401.4-2052.9z"/><path d="M3627.4-2522.2c-151.3-19.2-465.5-80.5-515.3-99.6l-55.6-23l11.5-205c11.5-187.7,53.6-471.3,82.4-565.1c11.5-34.5,23-36.4,132.2-26.8c166.7,15.3,705,126.4,728,149.4c34.5,34.5-13.4,634.1-61.3,754.8C3939.7-2508.8,3780.7-2501.1,3627.4-2522.2z M3776.8-2847.9c42.2-109.2,55.6-210.7,34.5-252.9c-19.2-36.4-222.2-93.9-434.9-124.5l-78.5-11.5l-13.4,72.8c-17.2,103.5-13.4,277.8,5.7,308.4c23,34.5,197.3,74.7,339.1,76.6l118.8,1.9L3776.8-2847.9z"/></g></g>
</svg>